<svg t="1746287994564" class="icon" viewBox="0 0 1024 1024" version="1.1" xmlns="http://www.w3.org/2000/svg" p-id="3238" width="200" height="200"><path d="M489.998 22.002c-117.382 0-225.108 41.294-309.488 110.124l-15.526 746.526c68.216 60.514 153.424 102.282 247.578 117.232l197.148-8.644C822.458 933.818 979.994 741.318 979.994 512c0-270.618-219.378-489.998-489.996-489.998z" fill="#746BF9" p-id="3239"></path><path d="M1024 733.368V195.686c0-35.104-28.456-63.56-63.56-63.56H180.51C70.356 221.978 0 358.766 0 512c0 79.662 19.028 154.874 52.758 221.366H1024z" fill="#47477F" p-id="3240"></path><path d="M196.09 204.726c0-35.168 24.672-64.836 57.558-72.598h-73.14C70.356 221.978 0 358.766 0 512c0 79.662 19.028 154.874 52.758 221.366h143.332z" fill="#3B3868" p-id="3241"></path><path d="M196.09 204.726c0-3.574 0.27-7.086 0.762-10.528H117.066a491.08 491.08 0 0 0-54.948 78.914h133.972z" fill="#3B3868" p-id="3242"></path><path d="M62.07 268.514h899.858v464.854H62.07z" fill="#42C3FC" p-id="3243"></path><path d="M62.072 268.512h134.02v464.854h-134.02z" fill="#1AA9E8" p-id="3244"></path><path d="M960.44 177.78H131.72a492.986 492.986 0 0 0-28.078 32.832h841.87v522.754a16.416 16.416 0 0 0 32.832 0V195.686c0-9.874-8.03-17.906-17.904-17.906z" fill="#3B3868" p-id="3245"></path><path d="M196.09 204.726c0-9.492 1.816-18.576 5.086-26.944H131.72a492.364 492.364 0 0 0-28.076 32.832h92.448v-5.888zM45.656 305.272v413.456a489.176 489.176 0 0 0 15.828 31.026c0.196 0.006 0.39 0.03 0.588 0.03a16.416 16.416 0 0 0 16.416-16.416V245.932a488.994 488.994 0 0 0-32.832 59.34z" fill="#2D2D59" p-id="3246"></path><path d="M141.258 255.758c-10.984 0-19.76-8.956-19.76-19.76 0-12.522 11.528-21.798 23.612-19.364a19.74 19.74 0 0 1 15.906 19.364c0.002 10.538-8.49 19.76-19.758 19.76z" fill="#FF4155" p-id="3247"></path><path d="M196.09 255.758c-10.984 0-19.76-8.956-19.76-19.76 0-12.522 11.528-21.798 23.612-19.364a19.74 19.74 0 0 1 15.906 19.364c0.002 10.538-8.49 19.76-19.758 19.76z" fill="#FFDD40" p-id="3248"></path><path d="M250.922 255.758c-10.984 0-19.76-8.956-19.76-19.76 0-12.522 11.528-21.798 23.612-19.364a19.74 19.74 0 0 1 15.906 19.364c0.002 10.538-8.49 19.76-19.758 19.76z" fill="#89E56A" p-id="3249"></path><path d="M512 694.806a16.416 16.416 0 0 1-16.416-16.416V323.764a16.416 16.416 0 0 1 32.832 0v354.626a16.416 16.416 0 0 1-16.416 16.416z" fill="#8AE1FF" p-id="3250"></path><path d="M165.656 362.088H134.092a16.416 16.416 0 0 1 0-32.832h31.564a16.416 16.416 0 0 1 0 32.832z" fill="#FFDD40" p-id="3251"></path><path d="M165.656 486.302H134.092a16.416 16.416 0 0 1 0-32.832h31.564a16.416 16.416 0 0 1 0 32.832z" fill="#8AE1FF" p-id="3252"></path><path d="M165.656 424.196H134.092a16.416 16.416 0 0 1 0-32.832h31.564a16.416 16.416 0 0 1 0 32.832z" fill="#B8F0FF" p-id="3253"></path><path d="M165.656 548.41H134.092a16.416 16.416 0 0 1 0-32.832h31.564a16.416 16.416 0 0 1 0 32.832z" fill="#FFDD40" p-id="3254"></path><path d="M165.656 672.624H134.092a16.416 16.416 0 0 1 0-32.832h31.564a16.416 16.416 0 0 1 0 32.832z" fill="#8AE1FF" p-id="3255"></path><path d="M165.656 610.518H134.092a16.416 16.416 0 0 1 0-32.832h31.564a16.416 16.416 0 0 1 0 32.832z" fill="#B8F0FF" p-id="3256"></path><path d="M310.098 362.088h-85.72a16.416 16.416 0 0 1 0-32.832h85.72a16.416 16.416 0 0 1 0 32.832z" fill="#8AE1FF" p-id="3257"></path><path d="M341.232 548.41h-116.856a16.416 16.416 0 0 1 0-32.832h116.856a16.416 16.416 0 0 1 0 32.832z" fill="#B8F0FF" p-id="3258"></path><path d="M277.274 424.196h-52.898a16.416 16.416 0 0 1 0-32.832h52.898a16.416 16.416 0 0 1 0 32.832z" fill="#8AE1FF" p-id="3259"></path><path d="M399.84 362.088h-31.136a16.416 16.416 0 0 1 0-32.832h31.136a16.416 16.416 0 0 1 0 32.832z" fill="#B8F0FF" p-id="3260"></path><path d="M341.478 424.196h-11.674a16.416 16.416 0 0 1 0-32.832h11.674a16.416 16.416 0 0 1 0 32.832z" fill="#8AE1FF" p-id="3261"></path><path d="M341.478 486.302h-52.896a16.416 16.416 0 0 1 0-32.832h52.896a16.416 16.416 0 0 1 0 32.832z" fill="#FFDD40" p-id="3262"></path><path d="M236.05 486.302h-11.674a16.416 16.416 0 0 1 0-32.832h11.674a16.416 16.416 0 0 1 0 32.832z" fill="#B8F0FF" p-id="3263"></path><path d="M300.256 610.518h-11.674a16.416 16.416 0 0 1 0-32.832h11.674a16.416 16.416 0 0 1 0 32.832z" fill="#FFDD40" p-id="3264"></path><path d="M430.974 424.196h-35.504a16.416 16.416 0 0 1 0-32.832h35.504a16.416 16.416 0 0 1 0 32.832z" fill="#8AE1FF" p-id="3265"></path><path d="M389.752 672.624h-11.674a16.416 16.416 0 0 1 0-32.832h11.674a16.416 16.416 0 0 1 0 32.832z" fill="#B8F0FF" p-id="3266"></path><path d="M324.086 672.624h-35.504a16.416 16.416 0 0 1 0-32.832h35.504a16.416 16.416 0 0 1 0 32.832z" fill="#8AE1FF" p-id="3267"></path><path d="M645.214 578.22l-68.726-60.742c-9.852-8.706-9.852-24.094 0-32.8l68.726-60.742c9.06-8.008 22.892-7.152 30.896 1.904 8.006 9.058 7.154 22.89-1.904 30.896l-50.17 44.342 50.17 44.342c9.058 8.006 9.91 21.838 1.904 30.896-8.016 9.07-21.85 9.898-30.896 1.904zM794.934 576.314c-8.006-9.058-7.154-22.89 1.904-30.896l50.17-44.342-50.17-44.342c-9.058-8.006-9.91-21.838-1.904-30.896 8.004-9.058 21.836-9.91 30.896-1.904l68.726 60.742c9.852 8.708 9.852 24.094 0 32.8l-68.726 60.742c-9.032 7.986-22.872 7.178-30.896-1.904zM708.414 582.588c-11.472-3.814-17.678-16.206-13.862-27.676l40.402-121.484c3.814-11.47 16.206-17.682 27.676-13.862 11.472 3.814 17.678 16.206 13.862 27.676l-40.402 121.484c-3.828 11.508-16.244 17.668-27.676 13.862z" fill="#E9EFFF" p-id="3268"></path><path d="M732.708 507.662c-8.566-2.848-14.53-9.9-16.424-18.096l-21.732 65.346c-3.816 11.472 2.39 23.862 13.862 27.676 11.434 3.806 23.85-2.354 27.676-13.862l22.416-67.406c-6.476 6.682-16.416 9.464-25.798 6.342z" fill="#D3DCFB" p-id="3269"></path><path d="M415.5 874.056v98.134c0 8.088-1.026 16.034-2.938 23.696a493.42 493.42 0 0 0 77.436 6.112c41.3 0 81.396-5.134 119.712-14.756a97.69 97.69 0 0 1-1.212-15.052v-98.134H415.5z" fill="#BEC8F7" p-id="3270"></path><path d="M476.854 977.63c0-33.638 27.27-60.908 60.908-60.908h70.738v-42.666h-192.998v98.134c0 8.088-1.026 16.034-2.938 23.696a493.636 493.636 0 0 0 64.29 5.916z" fill="#A2B6F4" p-id="3271"></path><path d="M164.984 878.654H960.44c35.104 0 63.56-28.456 63.56-63.56v-86.324H50.474c28.244 57.158 67.302 108.004 114.51 149.884z" fill="#E9EFFF" p-id="3272"></path><path d="M196.09 814.698v-85.928H50.474c28.244 57.158 67.302 108.006 114.51 149.884h67.442c-21.722-13.078-36.336-36.892-36.336-63.956z" fill="#BEC8F7" p-id="3273"></path><path d="M500.372612 832.574019a31.036 31.036 0 1 0 23.773943-57.338756 31.036 31.036 0 1 0-23.773943 57.338756Z" fill="#BEC8F7" p-id="3274"></path><path d="M576.488 517.478l68.726 60.742c9.046 7.994 22.878 7.166 30.896-1.904 8.006-9.058 7.152-22.89-1.904-30.896l-50.17-44.342c-36.494 6.116-32.584-29.624-32.584-29.624l-14.962 13.224c-9.852 8.706-9.854 24.092-0.002 32.8zM878.744 531.452c-37.452 0-31.738-30.374-31.738-30.374l-50.17 44.342c-9.058 8.006-9.91 21.838-1.904 30.896 8.024 9.082 21.864 9.888 30.896 1.904z" fill="#D3DCFB" p-id="3275"></path></svg>