<svg t="1729740936172" class="icon" viewBox="0 0 1024 1024" version="1.1" xmlns="http://www.w3.org/2000/svg" p-id="16300" width="200" height="200"><path d="M851.7 543.6c-20.5-97.4-89.7-154.8-122-186.7C674.2 297.5 613.3 224.3 581.5 61c-36.1 23-92.2 60.1-146.6 151.7-35 58.8-47.9 115.4-54.2 153.2-9.6-5.2-36-21.2-52.7-54.9-17.3-35.1-13.4-67.6-11.7-78.4-41.7 65.6-72.8 123.2-95.1 168.1-28.6 57.4-43.7 95.2-51.4 143 0 0-5.2 31.7-5.2 61.5 0 195.6 155.1 354.1 346.4 354.1s346.4-158.5 346.4-354.1c0.1-31.5-5.7-61.6-5.7-61.6zM511.9 866c-60.3 0-109.3-49.7-109.3-110.8C402.5 694 511.9 575 511.9 575S620 699.7 620 761c-0.1 61.2-47.8 105-108.1 105z" fill="#59AA5B" p-id="16301"></path></svg>