<svg t="1745160551002" class="icon" viewBox="0 0 1024 1024" version="1.1" xmlns="http://www.w3.org/2000/svg" p-id="18959" width="200" height="200"><path d="M709.12 395.2384c0-44.2112-34.56-80.3584-76.8-80.3584H102.4v344.6016C102.4 703.6672 136.96 739.84 179.2 739.84h76.8v154.9312a26.0352 26.0352 0 0 0 30.08 26.4704L320 885.76h3.5072L399.36 806.4h2.944L465.92 739.84h243.2z" fill="#EE7C3D" p-id="18960"></path><path d="M839.68 184.32v473.6H430.8992l-24.192 25.3184L337.92 755.2v-97.28H184.32V184.32h655.36m5.12-81.92H179.2c-42.24 0-76.8 36.1472-76.8 80.3584v476.7232C102.4 703.6672 136.96 739.84 179.2 739.84h76.8v154.9312A26.1888 26.1888 0 0 0 281.8048 921.6a24.4992 24.4992 0 0 0 17.92-7.9104L465.92 739.84h378.88c42.24 0 76.8-36.1472 76.8-80.3328V182.7584C921.6 138.5472 887.04 102.4 844.8 102.4z" fill="#333333" p-id="18961"></path><path d="M327.68 384a40.96 40.96 0 1 0 40.96 40.96 40.96 40.96 0 0 0-40.96-40.96zM696.32 384a40.96 40.96 0 1 0 40.96 40.96 40.96 40.96 0 0 0-40.96-40.96zM512 384a40.96 40.96 0 1 0 40.96 40.96 40.96 40.96 0 0 0-40.96-40.96z" fill="#333333" p-id="18962"></path></svg>