<svg t="1746980992011" class="icon" viewBox="0 0 1024 1024" version="1.1" xmlns="http://www.w3.org/2000/svg" p-id="5318" width="200" height="200"><path d="M229.09952 185.5232h384c38.4 0 69.632 31.232 69.632 69.632v523.776c0 38.4-31.232 69.632-69.632 69.632h-384c-38.4 0-69.632-31.232-69.632-69.632v-523.776c-0.512-38.4 30.72-69.632 69.632-69.632z" fill="#CAE4FF" p-id="5319"></path><path d="M399.872 613.376H263.68c-18.944 0-33.792 15.36-33.792 33.792 0 18.944 15.36 33.792 33.792 33.792h136.192c18.944 0 33.792-15.36 33.792-33.792 0.512-18.432-14.848-33.792-33.792-33.792z m170.496-169.984H264.192c-18.944 0-33.792 15.36-33.792 33.792 0 18.944 15.36 33.792 33.792 33.792h306.176c18.944 0 33.792-15.36 33.792-33.792 0-18.432-14.848-33.792-33.792-33.792z m0-170.496H264.192c-18.944 0-33.792 15.36-33.792 33.792 0 18.944 15.36 33.792 33.792 33.792h306.176c18.944 0 33.792-15.36 33.792-33.792 0-18.432-14.848-33.792-33.792-33.792z" fill="#0972E7" p-id="5320"></path><path d="M774.656 239.104v-33.792c0-75.264-60.928-136.192-136.192-136.192H196.096c-75.264 0-136.192 60.928-136.192 136.192v612.864c0 75.264 60.928 136.192 136.192 136.192h578.56c75.264 0 136.192-60.928 136.192-136.192V375.808c-0.512-75.776-61.44-136.704-136.192-136.704z m68.096 578.56c0 37.376-30.72 68.096-68.096 68.096h-578.56C158.72 885.76 128 855.04 128 817.664V205.312c0-37.376 30.72-68.096 68.096-68.096h442.368c37.376 0 68.096 30.72 68.096 68.096v510.464c0 18.944 15.36 33.792 33.792 33.792s33.792-15.36 33.792-33.792V307.2c37.376 0 68.096 30.72 68.096 68.096l0.512 442.368z" fill="#0972E7" p-id="5321"></path></svg>