<svg t="1729621708169" class="icon" viewBox="0 0 1024 1024" version="1.1" xmlns="http://www.w3.org/2000/svg" p-id="25949" width="200" height="200"><path d="M1023.07 619.378c-4.968-84.872-30.31-196.462-75.28-331.676a22.086 22.086 0 0 0-4.5-7.67L869.076 198.94a21.288 21.288 0 0 0-15.718-6.938h-85.34c-3.312 0-6.562 0.782-9.532 2.25l-38.156 19.046H303.702l-38.186-19.046a21.386 21.386 0 0 0-9.53-2.25H170.674c-6 0-11.718 2.516-15.75 6.938L80.74 280.032a21.168 21.168 0 0 0-4.5 7.67C31.242 422.916 5.9 534.508 0.93 619.378c-4.312 73.5 6.624 128.996 32.53 164.872 22.53 31.246 56.186 47.746 97.372 47.746 29.936 0 57.092-13.624 80.748-40.558 17.156-19.562 32.53-46.312 45.656-79.594 14.374-36.34 22.936-72.34 27.186-93.152H739.58c4.25 20.812 12.812 56.812 27.188 93.152 13.124 33.282 28.498 60.032 45.652 79.594 23.656 26.934 50.844 40.558 80.75 40.558 41.184 0 74.872-16.5 97.402-47.746 25.874-35.874 36.81-91.372 32.498-164.872z" fill="#ED5564" p-id="25950"></path><path d="M527.072 518.258c8.342 8.328 8.342 21.844 0 30.188-8.312 8.312-21.846 8.312-30.158 0-8.344-8.344-8.344-21.86 0-30.188 8.312-8.328 21.846-8.328 30.158 0z" fill="#DA4453" p-id="25951"></path><path d="M825.764 356.418c-8.344 8.344-21.842 8.344-30.154 0-8.344-8.328-8.344-21.828 0-30.17 8.312-8.328 21.81-8.328 30.154 0 8.344 8.344 8.344 21.842 0 30.17zM825.764 441.76c-8.344 8.328-21.842 8.328-30.154 0-8.344-8.328-8.344-21.844 0-30.172 8.312-8.328 21.81-8.328 30.154 0 8.344 8.328 8.344 21.844 0 30.172zM868.42 399.09c-8.312 8.328-21.812 8.328-30.156 0-8.344-8.328-8.344-21.828 0-30.17 8.344-8.328 21.844-8.328 30.156 0 8.344 8.328 8.344 21.842 0 30.17zM783.11 399.09a21.36 21.36 0 0 1-30.186 0c-8.312-8.328-8.312-21.828 0-30.17a21.36 21.36 0 0 1 30.186 0c8.312 8.328 8.312 21.842 0 30.17z" fill="#E6E9ED" p-id="25952"></path><path d="M448.01 554.696c0 47.122-38.218 85.308-85.34 85.308s-85.34-38.188-85.34-85.308c0-47.156 38.218-85.358 85.34-85.358s85.34 38.202 85.34 85.358z" fill="#656D78" p-id="25953"></path><path d="M362.668 448.01c-58.81 0-106.684 47.842-106.684 106.684 0 58.808 47.874 106.652 106.684 106.652s106.654-47.844 106.654-106.652c0-58.842-47.842-106.684-106.654-106.684z m0 170.682c-35.28 0-63.998-28.75-63.998-63.996 0-35.312 28.718-64.014 63.998-64.014s63.998 28.702 63.998 64.014c0 35.246-28.716 63.996-63.998 63.996z" fill="#434A54" p-id="25954"></path><path d="M746.674 554.696c0 47.122-38.188 85.308-85.342 85.308-47.124 0-85.31-38.188-85.31-85.308 0-47.156 38.188-85.358 85.31-85.358 47.154-0.002 85.342 38.202 85.342 85.358z" fill="#656D78" p-id="25955"></path><path d="M661.332 448.01c-58.81 0-106.652 47.842-106.652 106.684 0 58.808 47.842 106.652 106.652 106.652 58.842 0 106.686-47.844 106.686-106.652 0-58.842-47.844-106.684-106.686-106.684z m0 170.682c-35.28 0-63.998-28.75-63.998-63.996 0-35.312 28.718-64.014 63.998-64.014 35.31 0 64.03 28.702 64.03 64.014 0 35.246-28.72 63.996-64.03 63.996z" fill="#434A54" p-id="25956"></path><path d="M213.33 448.01c-11.782 0-21.342-9.546-21.342-21.344V341.34c0-11.78 9.562-21.328 21.342-21.328s21.342 9.546 21.342 21.328v85.326c0 11.798-9.56 21.344-21.342 21.344z" fill="#F5F7FA" p-id="25957"></path><path d="M255.986 405.34H170.674c-11.78 0-21.342-9.546-21.342-21.328s9.562-21.344 21.342-21.344h85.31c11.78 0 21.342 9.562 21.342 21.344 0.002 11.78-9.56 21.328-21.34 21.328z" fill="#E6E9ED" p-id="25958"></path><path d="M362.668 213.298h298.664v85.372H362.668z" fill="#FFCE54" p-id="25959"></path><path d="M990.572 784.25c17.844-24.718 28.56-58.75 32.124-101.558-0.062 0-119.464 87.09-234.524 72.558 0 0 0.094 0.812 0.344 2.218 7.5 13 15.498 24.344 23.904 33.968 23.656 26.934 50.844 40.558 80.75 40.558 41.184 0.002 74.872-16.498 97.402-47.744zM33.46 784.25C15.618 759.532 4.868 725.5 1.336 682.692c0 0 119.434 87.09 234.524 72.558l-0.344 2.218c-7.532 13-15.5 24.344-23.936 33.968-23.656 26.934-50.81 40.558-80.748 40.558-41.186 0.002-74.84-16.498-97.372-47.744zM141.77 213.298h161.932l-38.186-19.046a21.386 21.386 0 0 0-9.53-2.25H170.674c-6 0-11.718 2.516-15.75 6.938l-13.154 14.358zM882.264 213.298h-161.902l38.156-19.046a21.482 21.482 0 0 1 9.532-2.25h85.34c5.968 0 11.688 2.516 15.718 6.938l13.156 14.358z" fill="#434A54" p-id="25960"></path></svg>