<svg t="1729622086062" class="icon" viewBox="0 0 1098 1024" version="1.1" xmlns="http://www.w3.org/2000/svg" p-id="11997" width="200" height="200"><path d="M1072.186249 389.142349c-37.17766-67.472724-99.906776-96.472753-176.517492-95.716104-19.294551 0.189162-19.294551 0-24.416483-18.305087-18.639758-67.152603-76.98904-112.886217-151.577175-102.918821-16.326158 2.168091-32.332196 7.013555-49.225841 10.825902-1.324136-3.39037-2.77923-6.824392-4.045162-10.345721C624.613787 53.117418 511.014574-15.50483 385.599994 2.989419c-128.0483 18.916226-223.007755 138.859651-211.847181 267.737354 1.978928 22.728573 1.978928 22.728573-20.618687 27.108407C58.523893 316.256674-9.385358 407.782107 1.062219 502.930725A192.392571 192.392571 0 0 0 191.024782 675.170239h120.627319q0-125.938413-0.116407-251.847725c-0.16006-37.526882 25.91523-48.280029 41.49929-51.350278Q514.826921 339.698244 676.618858 306.609399l94.479274-19.192694c3.768694-0.712996 7.071758-1.105872 10.94231-1.5424 9.690928-1.105872 21.5936 1.455094 29.101886 7.581041s14.245373 14.929268 14.885615 24.634747c0.640242 7.930264 0.873057 11.553449 0.873056 15.205736v339.677218h102.031214c139.950972 0.029102 212.42922-158.139651 143.254036-283.830698z" fill="#F4840B" p-id="11998"></path><path d="M790.771007 320.418244c-5.180136 0.654792-8.934279 0.887608-12.615667 1.600604-139.427138 28.287034-278.810622 56.748678-418.295964 84.555531-10.971411 2.168091-13.095849 6.533373-13.095849 16.66083q0.421977 196.655997 0.145509 393.3993v15.147532c-5.55846-2.822883-9.225298-4.656302-12.848482-6.547925-59.527909-31.240875-138.772345-20.793298-182.628888 24.052709-37.832452 38.632754-38.632754 93.126036-0.843955 131.758791 35.431547 36.231849 79.899229 46.402958 129.081417 41.979471 71.57609-6.402415 116.189281-55.017116 116.000119-126.447696-0.232815-98.538987 0.101857-197.121627-0.232815-295.660615 0-9.923743 2.77923-13.605132 13.095849-15.147532C497.511298 572.178663 586.40301 557.816882 675.163764 543.804324c20.662339-3.288513 41.368331-6.1696 62.874625-9.370807v243.524585c-1.033117 0.291019-1.556951 0.567487-1.833419 0.421977-4.234324-1.935275-8.381343-4.001509-12.615667-5.820377-60.371863-24.736603-117.86264-21.171622-169.169266 21.026113-46.824935 38.589101-47.334218 100.328753-3.535879 142.206367 54.536935 52.136029 155.578685 51.714052 209.635439-0.989464 18.916226-18.406943 30.207758-40.524377 30.920754-67.341765 0.291019-11.815366 0.232815-23.630732 0.232815-35.431546q0-249.388615-0.101857-498.76268c0-3.957857-0.46563-7.959366-0.800302-12.848483z" fill="#F4840B" p-id="11999"></path></svg>