<svg t="1729741013710" class="icon" viewBox="0 0 1024 1024" version="1.1" xmlns="http://www.w3.org/2000/svg" p-id="20930" width="200" height="200"><path d="M924.75 512.076c-13.862-16.779-10.789-23.991 0.82-38.715 60.134-76.339 27.539-181.841-64.776-206.908-23.201-6.292-33.055-13.346-25.068-33.516 2.414-96.78-87.602-161.9-175.261-128.069-20.586 7.945-27.869 6.279-40.224-12.469-53.195-80.664-163.826-80.736-216.62 0.043-12.556 19.193-20.456 19.969-40.324 12.556-89.843-33.544-180.836 32.768-174.716 128.199 1.537 23.906-5.847 27.697-25.57 33.186-92.156 25.686-125.772 132.81-64.66 207.08 13.446 16.334 11.865 23.431-0.388 39.018-61.053 77.615-26.145 182.584 69.027 208.113 17.57 4.711 23.129 8.331 21.965 28.588-5.86 101.12 83.378 166.21 178.379 130.411 17.812-6.737 23.904-5.029 34.405 11.147 55.021 84.729 165.506 84.385 220.585-0.89 10.99-17.009 17.354-16.65 34.477-10.013 94.067 36.475 186.28-32.381 177.862-132.795-1.553-18.547 3.131-21.505 19.723-25.787 97.802-25.183 134.047-132.078 70.364-209.179zM408.449 647.731c-7.284 2.456-13.921 1.982-19.925-1.437l-125.886-81.899-1.093 0.36 33.559 100.099c3.463 12.757-1.35 21.319-14.452 25.729-13.819 4.655-22.841 0.718-27.022-11.793l-51.07-152.247c-4.425-13.202 0.172-22.482 13.762-27.812 7.743-1.049 14.624 0.129 20.615 3.491l126.232 82.976 1.092-0.373-33.918-101.135c-4.425-13.202 0.172-22.482 13.762-27.827 13.346-3.706 22.583 0.949 27.754 13.906l51.042 152.247c3.476 12.757-1.351 21.319-14.452 25.715z m137.637-46.127l-72.073 24.177c-13.374 3.72-22.512-0.589-27.424-12.872L397.286 465.89c-4.899-14.61-0.546-24.565 13.058-29.91l69.888-23.43c11.882-3.233 20.414 0.502 25.614 11.132 2.715 13.001-1.738 21.463-13.374 25.37l-49.145 16.477 12.944 38.587 45.869-15.372c12.857-2.758 21.85 1.178 27.051 11.808 2.486 12.312-2.312 20.874-14.452 25.715l-45.869 15.385 13.633 40.654 51.343-17.195c12.613-3.448 21.147 0.288 25.614 11.119 2.715 13.004-1.738 21.466-13.374 25.374z m210.788-70.68c-14.582 4.899-26.002 2.17-34.349-8.188l-67.374-92.241 1.852 114.235c-1.134 13.518-8.246 22.467-21.361 26.863-15.313 5.1-26.534 1.911-33.616-9.638l-85.002-133.903c-2.399-2.27-3.806-5.272-4.238-9.036-2.772-10.659 1.797-18.747 13.719-24.292 11.636-3.893 21.505 0.144 29.579 12.124l60.695 104.928 1.106-0.373-3.132-128.874c0.375-10.933 5.919-18.604 16.607-22.957 10.429-2.73 19.452 0.057 27.079 8.303L733.644 472.6l1.106-0.375-13.749-120.657c-2.728-13.016 2.342-22.065 15.213-27.151 12.096-2.5 20.63 1.191 25.599 11.119 1.178 3.505 1.839 6.766 2.055 9.768l14.021 157.707c-0.904 14.223-7.914 23.545-21.015 27.913z" fill="#13227a" p-id="20931"></path></svg>