<svg t="1746122633534" class="icon" viewBox="0 0 1024 1024" version="1.1" xmlns="http://www.w3.org/2000/svg" p-id="25014" width="200" height="200"><path d="M512 948.224c-116.5312 0-226.0992-45.4656-308.4288-127.7952S75.776 628.5312 75.776 512c0-116.5312 45.4656-226.0992 127.7952-308.4288S395.4688 75.776 512 75.776s226.0992 45.4656 308.4288 127.7952S948.224 395.4688 948.224 512c0 116.5312-45.4656 226.0992-127.7952 308.4288S628.5312 948.224 512 948.224z m0-779.4688c-189.6448 0-343.2448 153.6-343.2448 343.2448s153.6 343.2448 343.2448 343.2448 343.2448-153.6 343.2448-343.2448S701.6448 168.7552 512 168.7552z" p-id="25015"></path><path d="M512 512m-59.392 0a59.392 59.392 0 1 0 118.784 0 59.392 59.392 0 1 0-118.784 0Z" p-id="25016"></path><path d="M494.3872 528.7936c-9.216-9.216-9.216-24.1664 0-33.3824l105.6768-105.6768c9.216-9.216 24.1664-9.216 33.3824 0s9.216 24.1664 0 33.3824l-105.6768 105.6768c-9.216 9.216-24.1664 9.216-33.3824 0z" p-id="25017"></path><path d="M318.8736 344.4736m-42.3936 0a42.3936 42.3936 0 1 0 84.7872 0 42.3936 42.3936 0 1 0-84.7872 0Z" p-id="25018"></path><path d="M512 259.8912m-42.3936 0a42.3936 42.3936 0 1 0 84.7872 0 42.3936 42.3936 0 1 0-84.7872 0Z" p-id="25019"></path><path d="M703.6928 344.4736m-42.3936 0a42.3936 42.3936 0 1 0 84.7872 0 42.3936 42.3936 0 1 0-84.7872 0Z" p-id="25020"></path><path d="M251.6992 736.0512c61.2352 71.2704 151.1424 117.3504 252.3136 119.808 106.7008 2.4576 203.3664-44.032 268.0832-118.9888-61.2352-71.2704-151.1424-117.3504-252.3136-119.808-106.7008-2.4576-203.1616 44.032-268.0832 118.9888z" p-id="25021"></path></svg>