<svg t="1729621999784" class="icon" viewBox="0 0 1024 1024" version="1.1" xmlns="http://www.w3.org/2000/svg" p-id="9921" width="200" height="200"><path d="M750.592 464.896l182.272 73.216c0.512 0 1.024 0.512 1.024 0.512 0.512 0 1.024 0.512 1.024 0.512 0.512 0 1.024 0.512 1.024 0.512 0.512 0 1.024 0.512 1.024 0.512 5.632 3.072 10.24 7.68 13.824 12.8s5.632 11.264 6.656 17.92 1.024 13.824 0 21.504c-1.536 7.68-3.584 15.872-7.68 24.576l-181.76-76.8c3.584-8.192 6.144-15.872 7.168-23.552 1.024-7.168 1.024-14.336 0-20.48s-3.584-12.288-7.168-16.896c-3.584-5.12-7.68-9.216-13.312-12.288-0.512 0-1.024-0.512-1.024-0.512-0.512 0-1.024-0.512-1.024-0.512l-1.024-0.512c-0.512 0-1.024-0.512-1.024-0.512z" fill="#2F4B62" p-id="9922"></path><path d="M950.272 616.96l-181.76-76.8c0.512-0.512 0.512-1.024 1.024-2.048 0.512-0.512 0.512-1.024 1.024-2.048 0-0.512 0.512-1.024 0.512-2.048 0-0.512 0.512-1.024 0.512-2.048l182.272 76.8c0 0.512-0.512 1.536-0.512 2.048s-0.512 1.536-1.024 2.048-0.512 1.536-1.024 2.048c-0.512 1.024-0.512 1.536-1.024 2.048" fill="#2F4B62" p-id="9923"></path><path d="M953.344 609.28l-182.272-76.8c0.512-1.024 0.512-2.048 1.024-2.56 0.512-1.024 0.512-2.048 1.024-2.56s0.512-2.048 0.512-2.56 0.512-2.048 0.512-2.56l182.272 75.776c0 1.024-0.512 2.048-0.512 3.072s-0.512 2.048-1.024 3.072-0.512 2.048-1.024 3.072 0 1.024-0.512 2.048M956.928 597.504l-182.272-75.776c1.536-6.144 2.048-11.776 1.536-17.408 0-5.632-1.024-10.752-2.56-15.36s-4.096-8.704-7.168-12.8c-3.072-3.584-6.656-6.656-11.264-9.216-0.512 0-1.024-0.512-1.024-0.512-0.512 0-1.024-0.512-1.024-0.512l-1.024-0.512c-0.512 0-1.024-0.512-1.024-0.512l182.272 73.216c0.512 0 1.024 0.512 1.024 0.512 0.512 0 1.024 0.512 1.024 0.512 0.512 0 1.024 0.512 1.024 0.512 0.512 0 1.024 0.512 1.024 0.512 4.608 2.56 8.192 5.632 11.264 9.728 3.072 3.584 5.632 8.192 7.168 13.312 1.536 5.12 2.56 10.24 2.56 15.872 0.512 6.144 0 12.288-1.536 18.432" fill="#2F4B62" p-id="9924"></path><path d="M916.48 493.568l-182.784-71.168c1.024 0 2.048 0 3.072-0.512H745.984l182.784 71.168H919.552c-1.024 0.512-2.048 0.512-3.072 0.512" fill="#3C5F7C" p-id="9925"></path><path d="M928.256 493.568l-182.784-71.168c1.024 0 1.536 0 2.56 0.512 1.024 0 1.536 0.512 2.56 0.512s1.536 0.512 2.56 0.512 1.536 0.512 2.56 0.512l183.296 71.168c-1.024-0.512-1.536-0.512-2.56-0.512s-1.536-0.512-2.56-0.512-1.536-0.512-2.56-0.512c-1.024-0.512-2.048-0.512-3.072-0.512" fill="#3A5C78" p-id="9926"></path><path d="M938.496 495.616l-183.296-71.168H756.736s0.512 0 0.512 0.512l183.808 71.68s-0.512 0-0.512-0.512h-1.024l-1.024-0.512" fill="#385975" p-id="9927"></path><path d="M769.536 539.648c-0.512 0.512-0.512 1.024-0.512 1.536l-1.024-0.512c-13.312 29.184-27.136 56.32-43.008 80.896-6.656 10.752-13.312 20.48-20.992 30.208-2.048 3.072-4.096 5.632-6.144 8.192-2.56 2.56-4.608 5.12-6.656 7.68s-4.608 5.12-6.656 7.68-4.096 4.608-6.144 6.656h-0.512l-7.68 7.68c-2.56 2.56-5.12 4.608-7.68 7.168s-5.12 5.12-7.68 7.168c-2.56 2.048-5.632 4.608-8.192 6.656l0.512 0.512c-1.024 0.512-1.536 1.536-2.56 2.048-7.68 5.632-15.36 10.752-23.04 15.872-1.024 0.512-2.048 1.536-3.072 2.048-2.56 1.536-5.632 3.072-8.192 4.608-16.896 9.216-34.816 16.384-54.272 21.504-1.536 0.512-3.072 1.024-4.608 1.024-1.536 0.512-3.584 1.024-5.12 1.024-4.608 1.024-9.216 2.048-14.336 3.072-1.536 0-2.56 0.512-4.096 0.512s-2.56 0.512-4.096 0.512c-1.024 0-2.56 0.512-4.096 0.512-1.024 0-2.56 0.512-4.096 0.512-6.656 0.512-13.824 1.536-20.48 2.56-6.656 1.024-13.824 2.048-20.48 3.072-6.656 1.024-13.312 2.56-20.48 3.584-7.168 1.024-13.824 2.56-20.992 3.584-11.776 2.048-23.552 4.608-35.328 6.656-12.288 2.56-24.064 4.608-35.84 7.168-11.776 2.56-23.552 4.608-35.84 7.168-12.288 2.048-24.064 4.608-36.352 6.656-2.56 0.512-5.632 1.024-8.192 1.536-3.072 0.512-5.632 1.024-8.704 1.536l-9.216 1.536c-3.072 0.512-6.144 1.024-9.728 1.536l162.816 98.816c3.072-0.512 6.656-1.024 9.728-1.536 3.072-1.024 6.144-1.536 9.216-2.048 3.072-0.512 5.632-1.024 8.704-1.536 3.072-0.512 5.632-1.024 8.704-1.536 12.8-2.56 25.6-5.12 37.888-7.68 12.8-3.072 25.088-5.632 37.376-8.192l36.864-7.68c12.288-2.56 24.064-5.12 36.352-7.68 7.168-1.536 14.336-2.56 21.504-4.096 7.168-1.536 14.336-3.072 21.504-4.096 7.168-1.536 14.336-2.56 21.504-3.584 7.168-1.024 13.824-2.048 20.992-3.072 1.536 0 3.072-0.512 4.608-0.512s3.072-0.512 4.608-0.512c1.024 0 2.56 0 4.096-0.512 1.024-0.512 2.56-0.512 4.096-1.024 11.776-2.048 22.528-5.12 33.28-8.704 10.752-3.584 20.992-7.68 30.72-12.288 9.728-4.608 18.944-10.24 28.16-15.872s17.92-12.288 26.112-18.944l-1.024-0.512c0.512 0 0.512-0.512 1.024-0.512 2.048-1.024 3.584-3.072 5.12-4.608 6.144-5.632 12.8-11.264 18.432-17.408l0.512-0.512 2.56-2.56c1.536-1.536 3.072-3.584 4.608-5.12h0.512c2.56-2.56 4.608-5.12 7.168-7.68 2.048-2.56 4.608-5.632 6.656-8.192s4.608-5.632 6.656-8.192c2.56-3.072 4.608-5.632 6.144-8.192h0.512c2.56-3.072 4.608-6.656 6.656-9.728 2.048-3.072 4.608-6.144 6.656-9.728 1.536-2.56 3.072-5.12 5.12-7.68 0.512-1.024 1.536-2.048 2.048-3.072 2.56-3.072 4.608-6.144 6.144-9.728 0 0 0-0.512 0.512-0.512h0.512c2.56-4.608 5.12-8.704 8.192-13.824l7.68-13.824c2.56-4.608 5.12-9.216 7.68-14.336 2.56-5.12 4.608-9.728 7.168-14.848h-0.512 0.512c0.512-1.536 1.536-3.584 3.072-6.144 1.024-1.536 1.536-3.584 2.56-5.12s1.536-3.072 2.56-5.12 1.536-3.584 2.56-5.632l-181.248-76.288z" fill="#335169" p-id="9928"></path><path d="M734.208 422.4c-6.144 1.024-12.288 3.072-18.432 6.656-0.512 0.512-1.024 0.512-1.536 1.024 0 0-0.512 0-0.512 0.512-0.512 0-0.512 0.512-1.024 0.512-0.512 0.512-1.024 0.512-1.536 1.024-2.56 1.536-5.12 3.072-7.68 5.12h-0.512c-1.024 1.024-2.048 1.536-3.072 2.56-1.024 0.512-2.048 1.536-3.072 2.56l-3.072 3.072-3.072 3.072h0.512l-1.024-0.512c-1.024 1.024-2.048 2.56-3.072 3.584-1.024 1.024-2.048 2.56-3.072 3.584-1.024 1.536-2.048 2.56-3.072 4.096-1.024 1.536-2.048 2.56-3.072 4.096l-0.512 0.512c-0.512 0.512-1.024 1.024-1.024 1.536-2.048 2.56-3.584 4.608-5.632 7.68-2.56 3.584-5.12 7.68-7.68 11.776l-1.024-0.512c-1.024 2.048-2.048 3.584-3.072 5.632-1.024 1.536-2.048 3.584-3.072 5.632l-3.072 6.144-3.072 6.144c-1.536 3.584-3.584 6.656-5.12 9.728-2.048 3.072-3.584 6.144-5.632 9.216-2.048 3.584-3.584 6.656-5.632 9.728-2.048 2.56-3.584 6.144-5.632 8.704-0.512 1.024-1.024 1.536-1.536 2.56s-1.024 1.536-1.536 2.56c-0.512 1.024-1.024 1.536-1.536 2.56-0.512 1.024-1.024 1.536-1.536 2.56h0.512l-1.024-0.512c-0.512 1.536-1.536 3.072-2.56 4.608-0.512 1.536-1.536 3.072-2.56 4.608-0.512 1.536-1.536 3.072-2.56 4.608 0 0.512-0.512 1.024-1.024 1.536l-1.536 3.072 177.152 80.896c3.584-6.656 7.168-12.8 10.752-18.944 0 0 0-0.512 0.512-0.512 0.512-0.512 1.024-1.536 2.048-3.072 0.512-1.024 1.024-1.536 1.536-2.56 0.512-1.024 1.024-1.536 1.536-2.56 0.512-0.512 0.512-1.024 1.024-1.536 1.024-1.536 1.536-3.072 2.56-4.608 0.512-1.024 1.024-1.536 1.536-2.56 3.072-5.632 6.656-11.264 9.728-16.896l9.216-16.896c4.608-8.704 9.216-16.896 13.824-24.064h0.512c1.024-2.048 2.048-3.584 2.56-5.12 1.536-2.56 3.072-4.608 4.608-6.656 1.536-2.048 2.56-3.584 3.584-5.12 1.536-1.536 2.56-3.584 4.096-5.12h-0.512l0.512-0.512h0.512c1.024-1.024 2.048-2.56 2.56-3.584 3.584-4.608 7.168-8.704 11.264-12.8h0.512c0.512-0.512 1.024-1.536 1.536-2.048 3.072-3.072 6.144-6.144 9.216-8.704l1.536-1.536 0.512-0.512h0.512c2.56-2.048 5.632-4.096 7.68-5.632 3.072-2.048 5.632-3.584 8.192-4.608 3.072-1.024 5.632-2.048 8.192-3.072s5.12-1.536 7.68-2.048l-183.296-70.656z" fill="#3C5F7C" p-id="9929"></path><path d="M799.232 546.304L620.544 471.04c-3.072-4.096-5.632-8.192-8.704-11.776-3.072-3.584-6.144-6.656-9.728-9.216s-6.656-5.12-10.24-7.168-7.168-4.096-10.752-5.632l178.176 73.728c4.096 1.536 7.68 3.584 11.264 5.632s7.168 4.608 10.752 7.68c3.584 3.072 6.656 6.144 9.728 9.728 2.56 3.584 5.12 7.68 8.192 12.288" fill="#2F4B62" p-id="9930"></path><path d="M553.984 528.384l-6.144-3.072c2.048 1.024 3.584 2.048 6.144 3.072z" fill="#2F4B62" p-id="9931"></path><path d="M745.984 662.528c0-0.512 0-0.512 0 0l0.512-0.512c0.512-2.048 1.024-4.608 0.512-7.168v-6.656-1.024c0-2.56-0.512-5.632-1.024-8.192-0.512-3.072-1.024-5.632-2.048-8.704-1.024-3.072-2.048-6.656-3.584-9.216-1.024-3.072-3.072-5.632-4.608-7.68s-3.584-4.096-5.632-5.632c-2.048-1.536-4.096-3.072-6.656-4.096L547.84 524.288c2.56 1.536 4.608 2.56 6.144 4.096h0.512c2.048 1.536 4.096 3.584 5.632 5.632 1.536 2.048 3.072 4.608 4.608 7.168 1.536 3.072 2.56 5.632 3.584 9.216 1.024 3.072 1.536 5.632 2.048 8.192 0.512 2.56 1.024 5.12 1.024 7.68v7.168c-0.512 2.56-0.512 4.608-1.024 6.656h0.512c0 1.024-0.512 2.048-1.024 3.072 0 0.512 0 0.512-0.512 1.024l-0.512 0.512c0 0.512 0 0.512-0.512 1.024v0.512c0 0.512-0.512 0.512-0.512 1.024s0 0.512-0.512 0.512c0 0.512-0.512 0.512-0.512 1.024s-0.512 0.512-0.512 1.024-0.512 0.512-0.512 1.024l-0.512 0.512c-0.512 0.512-1.024 1.536-1.536 2.048l-0.512 0.512-0.512 0.512h-0.512c0 0.512-0.512 0.512-0.512 1.024v0.512c-0.512 0.512-0.512 1.024-1.024 1.536-1.536 1.536-3.584 3.072-5.632 4.608-1.536 1.024-2.56 1.536-4.096 2.56-1.536 1.024-3.584 1.536-5.632 2.56-1.536 0.512-4.096 1.536-6.144 2.048-2.56 0.512-4.608 1.024-7.168 1.536-5.12 1.024-10.24 1.536-15.36 2.56s-10.24 1.536-15.36 2.56-10.24 1.536-15.36 2.56-10.24 1.536-15.36 2.56c-2.048 0.512-4.608 0.512-6.656 1.024s-4.608 0.512-6.656 1.024-4.608 0.512-6.656 1.024-4.608 0.512-6.656 1.024c-5.12 1.024-9.728 1.536-14.848 2.56s-9.728 1.536-14.848 2.56-9.728 1.536-14.848 2.56c-4.608 1.024-9.728 1.536-14.848 2.56l169.472 87.04h0.512l15.36-3.072c5.12-0.512 10.24-1.536 15.36-2.56 5.12-0.512 10.24-1.536 15.36-2.56 5.12-0.512 10.24-1.536 15.36-2.56 2.048 0 4.608-0.512 6.656-1.024 2.048 0 4.608-0.512 6.656-1.024 1.024 0 2.048 0 3.584-0.512 1.024 0 2.56-0.512 3.584-0.512 2.048 0 4.608-0.512 6.656-1.024l7.68-1.536 7.68-1.536c5.12-1.024 10.752-2.048 15.872-3.072l7.68-1.536 7.68-1.536c5.12-1.024 10.752-2.048 15.872-3.072 2.56-0.512 4.608-1.024 7.168-1.536 1.536-0.512 2.56-1.024 3.584-1.536 3.584-1.536 7.168-3.072 10.24-4.608l4.608-3.072c0-0.512 0.512-0.512 1.536-1.024l1.024-1.024 1.024-1.024c0.512-0.512 0.512-0.512 1.024-0.512 0-0.512 0.512-0.512 0.512-1.024s0.512-0.512 0.512-1.024l1.024-1.024c0.512 0 0.512 1.536 0.512 1.024s0.512-0.512 0.512-1.024 0.512-0.512 0.512-1.024 0.512-0.512 0.512-1.024l-0.512-0.512c0-0.512 0.512-0.512 0.512-1.024 0.512 0 0.512 0 0.512-0.512s0.512-0.512 0.512-1.024 0.512-0.512 0.512-1.024 0-0.512 0.512-0.512c0-0.512 0.512-1.024 0.512-1.536s0.512-0.512 0.512-1.024c0.512-0.512 0-0.512 0.512-1.024l0.512-0.512 0.512 0.512c0.512-0.512 0.512-1.024 0.512-1.536 0.512-0.512 0.512-1.024 0.512-1.536 0.512-0.512 0.512-1.024 0.512-1.536v-0.512z" fill="#2F4B62" p-id="9932"></path><path d="M530.944 757.76l-168.448-89.088c-1.024-0.512-2.048-1.024-3.072-2.048-1.024-0.512-1.536-1.536-2.56-2.048-0.512-0.512-1.024-1.536-1.536-2.048-0.512-0.512-0.512-1.536-0.512-2.048v-2.56-2.048-2.048c0-0.512 0-1.024 0.512-2.048l167.936 88.576c0 0.512 0 1.536-0.512 2.048v6.656c0 1.024 0.512 1.536 0.512 2.56 0.512 0.512 1.024 1.536 1.536 2.048 0.512 0.512 1.536 1.536 2.56 2.048 1.536 1.024 2.56 1.536 3.584 2.048" fill="#2F4B62" p-id="9933"></path><path d="M523.264 740.352l-167.936-88.576v-2.048l168.448 88.576v1.024l-0.512 1.024c0.512-0.512 0.512 0 0 0" fill="#314E66" p-id="9934"></path><path d="M524.288 737.792l-168.448-88.576v-2.048l168.448 88.064v1.024c0.512 0.512 0 1.024 0 1.536 0-0.512 0 0 0 0" fill="#335169" p-id="9935"></path><path d="M524.8 735.744l-168.448-88.064v-0.512-0.512-0.512-0.512l168.448 88.064v1.024c0.512 0.512 0.512 0.512 0 1.024 0.512 0 0.512 0 0 0" fill="#35546D" p-id="9936"></path><path d="M525.824 734.208l-168.448-88.064v-0.512-0.512-0.512-0.512l168.448 88.064-0.512 0.512v0.512c1.024 0.512 1.024 0.512 0.512 1.024" fill="#375671" p-id="9937"></path><path d="M526.848 732.672L358.4 644.608l0.512-0.512 0.512-0.512 0.512-0.512 0.512-0.512 168.448 88.064-0.512 0.512-0.512 0.512-1.024 1.024" fill="#385975" p-id="9938"></path><path d="M527.872 731.648l-168.448-88.064 0.512-0.512 0.512-0.512 0.512-0.512s0.512 0 0.512-0.512l168.448 88.064-0.512 0.512-0.512 0.512-1.024 1.024c0.512-0.512 0.512-0.512 0 0" fill="#3A5C78" p-id="9939"></path><path d="M529.92 729.6l-168.448-88.064c1.024-1.024 2.56-1.536 3.584-2.048 1.536-0.512 2.56-1.024 4.096-1.536 1.536-0.512 3.072-1.024 4.096-1.024 1.536-0.512 3.072-0.512 4.608-1.024H386.048l169.472 87.04h-0.512-0.512-7.168c-1.536 0.512-3.072 0.512-4.608 1.024-1.536 0.512-3.072 0.512-4.608 1.024-1.536 0.512-3.072 1.024-4.096 1.536-1.536 1.536-3.072 2.048-4.096 3.072" fill="#3C5F7C" p-id="9940"></path><path d="M386.56 951.808L225.28 850.432c-2.048-1.024-3.584-3.072-5.12-4.608-1.536-2.048-2.56-4.608-3.072-7.168-1.024-2.56-1.536-6.144-1.536-9.728-0.512-3.584-0.512-7.68 0-12.288 0.512-20.992 1.024-41.984 1.536-62.464 0.512-20.992 0.512-41.984 1.024-62.976 0-20.992 0.512-42.496 0.512-63.488v-64-4.608-4.096c0-1.536 0-2.56 0.512-4.096 0-1.024 0.512-2.56 0.512-3.584L384 631.808c0 1.024-0.512 2.56-0.512 4.096s-0.512 2.56-0.512 4.096 0 3.072-0.512 4.608v4.608c0 22.528-0.512 45.056-1.024 67.584s-0.512 44.544-1.024 67.072l-1.536 66.56c-0.512 22.016-1.536 44.032-2.56 66.048v12.8c0.512 4.096 1.024 7.168 1.536 10.24 1.024 3.072 2.048 5.632 3.072 7.68 2.048 1.536 3.584 3.584 5.632 4.608" fill="#2F4B62" p-id="9941"></path><path d="M224.256 536.064c-1.024 0.512-1.024 1.024-1.024 1.024-0.512 0-0.512 0.512-0.512 0.512v0.512c0 0.512 0 0.512-0.512 1.024s-0.512 0.512-0.512 1.024c-0.512 0.512-0.512 0.512-0.512 1.024l1.024 0.512c0 0.512-0.512 0.512-0.512 1.024s-0.512 1.024-0.512 1.536c-0.512 0.512-0.512 1.024-0.512 1.536-0.512 0.512-0.512 1.024-0.512 1.536l164.352 84.48c0-0.512 1.024-1.536 1.024-2.048 0-0.512 0.512-1.024 0.512-1.536 0-0.512 0.512-1.024 0.512-1.536 0-0.512 0.512-1.024 0.512-1.536l-0.512-0.512v-0.512c0-0.512 0.512-0.512 0.512-1.024s0.512-0.512 0.512-1.024 0.512-0.512 0.512-1.024l-0.512-0.512v-0.512l0.512-0.512 0.512-0.512 0.512-0.512-164.352-82.944-0.512 0.512zM227.84 530.944l-1.024 1.024-0.512 0.512-0.512 0.512-0.512 0.512-0.512 0.512-0.512 0.512L389.12 618.496c0.512-0.512 0.512-0.512 0.512-1.024l0.512-0.512 0.512-0.512 0.512-0.512c0-0.512 0.512-0.512 0.512-0.512l0.512-0.512 0.512-0.512 0.512-0.512-164.864-83.456-0.512 0.512zM231.424 527.872c-0.512 0-0.512 0.512-1.024 0.512s-1.024 0.512-1.024 0.512l-0.512 0.512-0.512 0.512 164.864 83.456c0.512-0.512 0-0.512 0.512-0.512s0.512-0.512 1.024-0.512 0.512-0.512 1.024-0.512 0.512-0.512 1.024-0.512l-165.376-83.456z" fill="#5B90BC" p-id="9942"></path><path d="M533.504 483.84c-4.096 0-8.192 0-12.288 0.512-4.608 0-9.216 0.512-13.824 1.024-4.608 0.512-9.728 1.536-15.36 2.048l-32.256 4.608c-10.752 1.536-22.016 3.072-32.768 4.608-10.752 1.536-21.504 3.072-32.768 4.608-11.264 1.536-22.016 3.072-33.28 4.608-8.704 1.024-17.92 2.56-26.624 3.584s-17.408 2.56-26.624 3.584c-8.704 1.024-17.92 2.56-27.136 3.584-9.216 1.024-18.432 2.56-27.648 3.584-2.56 0-4.608 0.512-6.656 1.024s-4.096 1.024-5.632 1.536c-2.048 0.512-3.584 1.024-5.12 2.048-1.536 0.512-2.56 1.536-4.096 2.56l165.376 82.944c1.024-1.024 2.56-1.536 3.584-2.56 1.536-0.512 3.072-1.536 5.12-2.048l6.144-1.536c2.048-0.512 4.096-1.024 6.656-1.536 9.728-1.536 18.944-2.56 28.672-4.096 9.216-1.536 18.944-2.56 28.16-4.096 9.216-1.024 18.432-2.56 27.648-4.096 9.216-1.024 18.432-2.56 27.648-4.096 11.264-2.048 23.04-3.584 34.304-5.632 11.776-2.048 23.04-3.584 34.304-5.632 11.264-1.536 22.528-3.584 33.792-5.12 11.264-1.536 22.016-3.584 33.28-5.12 5.632-0.512 10.752-1.536 15.872-2.048 5.12-0.512 9.728-1.024 14.336-1.536 4.608 0 8.704-0.512 12.8-0.512s7.68 0 11.264 0.512l-176.128-76.8c-3.072-0.512-6.656-0.512-10.752-0.512zM565.248 487.936c-0.512 0-1.024-0.512-1.536-0.512-0.512 0-1.024-0.512-1.536-0.512-0.512 0-1.024-0.512-1.536-0.512-0.512 0-1.024-0.512-1.536-0.512-1.536-0.512-2.56-0.512-3.584-1.024-1.024 0-2.56-0.512-3.584-0.512s-2.56-0.512-3.584-0.512c-1.536 0-2.56-0.512-4.096-0.512l176.128 76.8c1.536 0 3.072 0 4.608 0.512 1.024 0 2.56 0.512 3.584 0.512s2.56 0 3.584 0.512c1.536 0.512 2.56 0.512 3.584 1.024 0.512 0 1.024 0.512 1.536 0.512 0.512 0 1.024 0.512 1.536 0.512 0.512 0 1.024 0.512 1.536 0.512 0.512 0 1.024 0.512 1.536 0.512l-176.64-76.8z" fill="#427AA8" p-id="9943"></path><path d="M849.92 473.088c-4.096 5.632-7.68 11.264-11.776 16.896-4.096 5.632-8.192 11.776-12.288 17.408-4.096 6.144-8.192 12.288-12.8 18.432s-8.704 12.8-13.824 19.968c-7.68-11.776-15.872-20.48-25.088-27.136-9.216-6.656-19.456-10.752-30.208-13.312-10.752-2.56-22.016-3.072-33.792-3.072-11.776 0.512-24.064 1.536-36.352 3.584-2.048 0.512-3.584 0.512-5.632 1.024-2.048 0.512-3.584 0.512-5.632 1.024-2.048 0.512-3.584 0.512-5.632 1.024-2.048 0.512-4.096 0.512-5.632 1.024-6.144 1.024-12.8 2.048-18.944 3.072-6.656 1.024-12.8 2.048-19.456 3.072s-12.8 2.048-19.456 3.072-12.8 2.048-19.456 3.072c-9.728 1.536-19.968 3.072-29.696 4.096-9.728 1.536-19.968 3.072-30.208 4.096-10.24 1.536-19.968 3.072-30.208 4.608l-30.72 4.608v-2.048-2.048-2.048-2.048c34.816-5.12 69.12-10.24 103.424-15.36 33.792-5.12 67.072-9.728 100.352-14.848 32.768-4.608 65.536-9.728 97.792-14.336l95.232-13.824z" fill="#336699" p-id="9944"></path><path d="M452.608 531.456L284.672 453.12c33.792-4.608 66.56-8.704 99.84-13.312 32.768-4.096 65.024-8.704 97.28-12.8 31.744-4.096 63.488-8.192 94.72-12.8 31.232-4.096 61.952-8.192 92.672-12.288L849.92 473.088l-95.232 13.824c-32.256 4.608-65.024 9.728-97.792 14.336-33.28 5.12-66.56 9.728-100.352 14.848-34.816 5.12-69.12 10.24-103.936 15.36" fill="#427AA8" p-id="9945"></path><path d="M452.608 540.16L284.672 461.312v-2.048-2.048-2.048-2.048l167.936 78.336V540.16" fill="#30648E" p-id="9946"></path><path d="M916.48 493.568c7.168-1.024 13.824-0.512 20.48 1.536s13.312 5.632 19.968 10.752c6.656 5.12 12.8 11.776 18.944 19.968s11.776 17.408 17.408 28.672c-0.512 4.608-0.512 9.216-1.024 13.312-0.512 4.608-0.512 9.216-1.024 13.312-0.512 4.608-0.512 9.216-1.024 13.312-0.512 4.608-0.512 9.216-1.024 13.312l-15.36 29.184-15.36 29.184-15.36 29.184c-5.12 9.728-10.752 18.944-16.384 28.16-14.336 23.04-29.184 43.52-45.056 61.952s-32.768 34.816-50.688 49.152-36.864 26.112-57.344 35.328c-20.48 9.728-41.984 16.896-64.512 21.504-0.512 0-1.536 0.512-2.048 0.512-0.512 0-1.536 0.512-2.048 0.512-0.512 0-1.536 0.512-2.048 0.512-0.512 0-1.536 0-2.048 0.512l-26.112 4.608c-8.704 1.536-17.408 3.072-26.112 5.12-8.704 1.536-17.408 3.584-26.624 5.12-8.704 1.536-17.92 3.584-26.624 5.632l-44.544 9.216c-14.848 3.072-29.696 6.656-45.056 9.728-14.848 3.072-30.208 6.656-45.568 10.24s-30.72 6.656-46.08 10.24h-2.048c-7.168 1.536-13.312 2.048-18.432 1.536-5.12-0.512-9.216-2.048-11.776-5.12-3.072-3.072-5.12-7.168-6.144-12.8s-1.536-12.288-1.024-20.992c1.024-22.016 1.536-44.032 2.56-66.048l1.536-66.56c0.512-22.528 1.024-44.544 1.024-67.072 0.512-22.528 0.512-45.056 1.024-67.584 0-7.168 0.512-13.824 2.048-18.944 1.536-5.632 3.584-9.728 6.144-13.824 3.072-3.584 6.656-6.656 11.264-8.704 4.608-2.048 10.24-3.584 16.384-4.608 9.728-1.536 19.456-2.56 28.672-4.096 9.728-1.536 18.944-2.56 28.16-4.096s18.432-2.56 27.648-4.096 18.432-3.072 27.648-4.096c11.264-2.048 23.04-3.584 34.304-5.632s22.528-3.584 34.304-5.632c11.264-2.048 22.528-3.584 33.792-5.12s22.528-3.584 33.28-5.12c20.992-3.072 37.888-5.12 51.712-4.096 13.824 1.024 24.064 4.096 32.768 10.752 8.704 6.656 15.36 16.384 20.992 30.208 5.632 13.824 10.752 31.744 15.36 54.272 3.584-6.656 7.68-12.8 11.264-18.432 3.584-6.144 7.168-11.776 10.752-17.408 3.584-5.632 6.656-11.264 9.728-16.896l9.216-16.896c7.168-14.336 14.848-26.624 22.016-37.376 7.168-10.752 14.848-19.968 22.528-27.648s14.848-13.824 22.016-17.92c9.216-5.632 16.384-8.704 23.552-9.728z m33.792 123.392c4.096-8.704 6.144-16.896 7.68-24.576s1.536-14.848 0-21.504c-1.024-6.656-3.584-12.8-6.656-17.92-3.584-5.12-8.192-9.216-13.824-12.8-2.048-1.024-3.584-2.048-5.632-2.56-2.048-0.512-3.584-1.024-5.632-1.536-2.048-0.512-4.096-0.512-5.632-0.512-2.048 0-4.096 0-6.144 0.512-4.096 0.512-7.68 2.048-11.776 3.584-4.096 2.048-7.68 4.608-11.264 7.68s-7.168 7.168-10.752 11.264c-3.584 4.608-6.656 9.216-9.728 14.848-3.584 6.656-7.168 13.824-11.264 20.48-3.584 6.656-7.168 13.824-10.752 20.48-3.584 6.656-7.168 13.824-10.752 20.48-3.584 6.656-7.68 13.312-11.776 19.968-6.656 10.752-13.824 20.48-21.504 29.184s-15.36 16.384-24.064 23.04-17.408 11.776-27.136 16.384c-9.728 4.096-19.968 7.68-30.72 9.216H716.8c-4.608 0.512-9.216 1.536-13.824 2.048-4.608 0.512-9.216 1.536-13.824 2.048-4.608 1.024-9.216 1.536-13.824 2.56s-9.216 1.536-13.824 2.56c-2.56 0.512-5.12 1.024-7.168 1.536-2.56 0.512-5.12 1.024-7.168 1.536-2.56 0.512-5.12 1.024-7.168 1.536-2.56 0.512-5.12 1.024-7.168 1.536l-7.68 1.536-7.68 1.536-7.68 1.536-7.68 1.536c-4.096 0.512-8.192 1.536-11.776 2.048-4.096 0.512-8.192 1.536-12.288 2.048-4.096 0.512-8.192 1.536-12.288 2.048-4.096 0.512-8.192 1.024-12.288 2.048-2.56 0.512-5.632 0.512-9.216-0.512-3.072-0.512-6.656-1.536-9.728-2.56s-5.632-2.56-7.68-4.608c-2.048-1.536-3.072-3.584-3.584-5.632-0.512-5.12 0-8.704 1.536-12.288 1.024-3.072 3.072-5.632 5.632-7.68s5.12-3.072 8.192-4.096 6.144-1.536 9.216-2.048H556.032l15.36-3.072c5.12-1.024 10.24-2.048 15.36-2.56 5.12-1.024 10.24-2.048 15.36-2.56 5.12-1.024 10.24-2.048 15.36-2.56 2.048-0.512 4.608-1.024 6.656-1.024 2.048-0.512 4.608-1.024 6.656-1.024 2.048-0.512 4.608-1.024 6.656-1.024 2.048-0.512 4.608-1.024 6.656-1.024 5.12-1.024 10.752-2.048 15.872-3.072 5.12-1.024 10.752-2.048 15.872-3.072 5.12-1.024 10.752-2.048 15.872-3.072 5.12-1.024 10.752-2.048 15.872-3.072 8.192-1.536 15.36-4.096 20.992-7.68s10.24-8.192 13.312-13.824c3.072-5.632 5.12-11.776 5.632-18.944 0.512-7.168-0.512-14.848-3.072-23.552-2.048-6.656-4.608-12.288-8.192-16.896-3.584-4.096-7.68-7.68-12.288-9.728s-9.728-3.072-15.36-3.584-11.264 0-17.92 1.024c-20.48 3.072-40.448 6.656-60.928 9.728-20.48 3.584-41.472 6.656-61.952 10.24-20.992 3.584-41.984 6.656-63.488 10.24l-64.512 10.752c-1.536 0-2.56 0.512-4.096 1.024s-2.56 1.024-4.096 1.024c-1.536 0.512-2.56 1.024-4.096 1.536l-4.608 1.536-1.536 65.536-1.536 65.024a125080.58624 125080.58624 0 0 0-3.072 132.096c3.584-0.512 6.656-1.536 10.24-2.048 3.072-0.512 6.144-1.024 9.216-2.048 3.072-0.512 6.144-1.024 8.704-1.536 3.072-0.512 5.632-1.024 8.704-1.536 12.8-2.56 25.088-5.12 37.888-7.68 12.288-2.56 25.088-5.12 37.376-8.192l36.864-7.68c12.288-2.56 24.576-5.12 36.352-7.68 7.168-1.536 14.336-3.072 21.504-4.096 7.168-1.536 14.336-2.56 21.504-4.096 7.168-1.024 14.336-2.56 21.504-3.584 7.168-1.024 13.824-2.048 20.992-3.072 1.536 0 3.072-0.512 4.608-0.512 1.536 0 3.072-0.512 4.608-0.512 1.536 0 3.072-0.512 4.096-0.512 1.536-0.512 3.072-0.512 4.096-1.024 29.696-6.144 56.32-15.872 80.384-29.696s45.568-31.232 65.536-51.712c19.968-20.48 37.376-44.032 54.272-70.144 16.384-27.136 31.232-55.808 45.056-87.04" fill="#336699" p-id="9947"></path><path d="M673.792 404.992L497.152 335.872c0-6.144 0.512-12.288 0.512-18.432 0-6.144 0.512-11.776 0.512-17.92s0.512-11.776 0.512-17.92 0.512-11.776 0.512-17.92l177.664 65.536c0 6.656-0.512 12.8-0.512 18.944s-0.512 12.288-0.512 18.944c0 6.144-0.512 12.288-0.512 18.944-1.024 6.144-1.536 12.288-1.536 18.944" fill="#2F4B62" p-id="9948"></path><path d="M496.64 335.872c-13.824 1.536-27.648 3.584-41.472 5.12-13.824 1.536-27.648 3.584-41.984 5.12-14.336 1.536-28.672 3.584-43.008 5.12-14.336 1.536-29.184 3.584-44.032 5.12L496.64 428.544c15.36-2.048 30.72-4.096 45.568-6.144l44.544-6.144c14.336-1.536 29.184-3.584 43.52-5.632 14.336-2.048 28.672-3.584 43.008-5.632L496.64 335.872z" fill="#3C5F7C" p-id="9949"></path><path d="M457.728 488.448L289.28 412.672c-2.048-1.024-4.096-2.56-5.632-4.096s-2.56-4.096-3.584-6.656-1.536-5.632-1.536-9.216c-0.512-3.584-0.512-7.68 0-11.776 0.512-8.704 1.024-16.896 1.024-25.6 0.512-8.704 0.512-17.408 0.512-25.6v-25.6c0-8.704 0-17.408-0.512-25.6v-3.584-3.584c0-1.024 0-2.048 0.512-3.072 0-1.024 0.512-2.048 0.512-3.072l169.984 66.56c0 1.024-0.512 2.048-0.512 3.072s-0.512 2.048-0.512 3.584v34.816c0 9.216 0 17.92-0.512 27.136 0 9.216-0.512 17.92-1.024 27.136s-1.024 17.92-1.536 27.136c-0.512 4.608-0.512 8.704 0 12.288s1.024 6.656 1.536 9.728c1.024 2.56 2.048 5.12 3.584 7.168 2.048 2.56 4.096 3.584 6.144 4.608" fill="#30648E" p-id="9950"></path><path d="M450.56 331.776L280.576 264.192c0-0.512 0-1.024 0.512-1.536 0-0.512 0-1.024 0.512-1.024 0-0.512 0-1.024 0.512-1.024 0-0.512 0-1.024 0.512-1.024l169.984 67.072c0 0.512-0.512 1.024-0.512 1.024 0 0.512-0.512 1.024-0.512 1.536s0 1.024-0.512 1.536c0 0 0 0.512-0.512 1.024" fill="#5B90BC" p-id="9951"></path><path d="M452.096 326.656L282.112 259.072c0-0.512 0-0.512 0.512-1.024 0-0.512 0-0.512 0.512-0.512 0 0 0-0.512 0.512-0.512 0 0 0-0.512 0.512-0.512l169.984 67.072s0 0.512-0.512 1.024c0 0.512 0 0.512-0.512 1.024 0 0.512 0 0.512-1.024 1.024 0 0.512 0-0.512 0 0" fill="#5B90BC" p-id="9952"></path><path d="M453.632 323.584L283.136 256.512s0-0.512 0.512-0.512c0 0 0-0.512 0.512-0.512 0 0 0-0.512 0.512-0.512 0 0 0-0.512 0.512-0.512L455.68 321.536s0 0.512-0.512 0.512c0 0 0 0.512-0.512 0.512s0 0.512-0.512 0.512-0.512 0-0.512 0.512M455.168 321.024L284.672 253.952s0-0.512 0.512-0.512c0 0 0-0.512 0.512-0.512 0 0 0-0.512 0.512-0.512l0.512-0.512 170.496 66.56-0.512 0.512-0.512 0.512-0.512 0.512c-0.512 0.512-0.512 0.512-0.512 1.024" fill="#5B90BC" p-id="9953"></path><path d="M456.704 318.464l-170.496-66.56 0.512-0.512 0.512-0.512 0.512-0.512 0.512-0.512 170.496 66.56-0.512 0.512-0.512 0.512-1.024 1.024" fill="#5B90BC" p-id="9954"></path><path d="M458.24 316.416l-170.496-66.56 0.512-0.512 0.512-0.512 0.512-0.512 0.512-0.512 170.496 66.56-0.512 0.512-0.512 0.512-1.024 1.024c0.512-0.512 0.512 0 0 0" fill="#5B90BC" p-id="9955"></path><path d="M461.312 313.856l-170.496-66.56c1.024-1.024 2.56-1.536 4.096-2.048l4.608-1.536c1.536-0.512 3.072-1.024 5.12-1.024 2.048-0.512 3.584-0.512 5.632-1.024 16.896-1.536 33.28-3.072 49.664-5.12 16.384-1.536 32.768-3.072 48.64-5.12 16.384-1.536 32.256-3.072 48.128-5.12 15.872-1.536 31.744-3.072 47.616-5.12 15.36-1.536 30.208-3.072 45.568-4.608 14.848-1.536 30.208-3.072 45.056-4.608l44.544-4.608c14.848-1.536 29.184-3.072 44.032-4.608h10.752l184.32 59.904H870.4c-1.024 0-2.048 0-3.072 0.512-14.848 2.048-30.208 3.584-45.056 5.632-15.36 2.048-30.208 3.584-45.568 5.632-15.36 2.048-30.72 3.584-46.592 5.632-15.36 2.048-31.232 3.584-47.104 5.632-16.384 2.048-32.768 3.584-49.152 5.632-16.384 2.048-33.28 3.584-49.664 5.632-16.896 2.048-33.792 3.584-50.688 5.632-16.896 2.048-34.304 3.584-51.712 5.632-2.048 0-4.096 0.512-6.144 1.024-2.048 0.512-3.584 1.024-5.12 1.536s-3.072 1.024-4.608 2.048c-2.048-0.512-3.584 0.512-4.608 1.024" fill="#427AA8" p-id="9956"></path><path d="M877.568 262.656l-184.32-59.904H696.32c0.512 0 0.512 0 1.024 0.512l184.32 59.904c-0.512 0-0.512 0-1.024-0.512h-2.048-1.024" fill="#3A5C78" p-id="9957"></path><path d="M888.32 397.312c0 6.144-1.024 11.776-2.048 16.384-1.024 4.608-3.072 8.192-5.632 11.264s-5.632 5.632-9.216 7.168-8.192 3.072-13.312 3.584h-0.512-0.512-0.512-0.512c-6.656 1.024-12.8 1.536-19.456 2.56s-13.312 1.536-19.456 2.56c-6.656 1.024-13.312 1.536-19.968 2.56-6.656 1.024-13.312 2.048-19.968 2.56-8.704 1.024-17.408 2.56-26.112 3.584-8.704 1.024-17.408 2.56-26.624 3.584-8.704 1.536-17.92 2.56-26.624 4.096s-17.92 2.56-26.624 3.584-17.92 2.56-27.136 3.584-17.92 2.56-27.136 3.584-18.432 2.56-27.136 3.584c-9.216 1.024-18.432 2.56-27.648 4.096-6.656 1.024-13.824 2.048-20.992 3.072s-13.824 2.048-20.992 3.072-13.824 2.048-20.992 3.072-14.336 2.048-20.992 3.584H476.16c-6.144 1.024-11.264 1.024-15.36 0s-7.68-2.56-10.24-5.632c-2.56-2.56-4.096-6.656-5.12-11.264-1.024-5.12-1.024-10.752-0.512-17.92 0.512-9.216 1.024-17.92 1.536-27.136 0.512-9.216 0.512-17.92 1.024-27.136 0-9.216 0.512-18.432 0.512-27.136v-27.136c0-6.656 0.512-12.288 2.048-16.896 1.024-4.608 3.072-8.704 5.632-11.776s6.144-5.12 9.728-7.168c4.096-1.536 8.704-2.56 14.336-3.584 17.408-2.048 34.304-3.584 51.712-5.632 16.896-2.048 33.792-3.584 50.688-5.632 16.896-2.048 33.28-3.584 49.664-5.632 16.384-2.048 32.768-3.584 49.152-5.632 15.872-2.048 31.232-3.584 47.104-5.632 15.36-2.048 31.232-3.584 46.592-5.632 15.36-2.048 30.72-3.584 45.568-5.632 15.36-2.048 30.208-3.584 45.056-5.632 5.632-0.512 10.24-0.512 13.824 0.512 3.584 1.024 6.656 2.56 8.704 5.12s3.584 6.144 4.096 10.752c0.512 4.608 1.024 9.728 0 16.384-0.512 8.704-1.536 17.408-2.048 25.6-0.512 8.704-1.024 16.896-1.536 25.6-0.512 8.704-1.024 16.896-1.024 25.6 1.536 10.24 1.024 18.944 1.024 27.136z m-214.528 7.68c0.512-6.656 0.512-13.312 0.512-19.456 0-6.144 0.512-12.8 0.512-18.944s0.512-12.288 0.512-18.944c0-6.144 0.512-12.8 0.512-18.944-14.848 2.048-29.696 3.584-44.544 5.632-14.848 2.048-29.696 3.584-44.032 5.632-14.848 2.048-29.184 3.584-44.032 5.632s-29.696 3.584-44.544 5.632c0 6.656-0.512 13.824-0.512 20.48s-0.512 13.312-0.512 19.456c0 6.656-0.512 12.8-0.512 18.944s-0.512 12.8-0.512 18.944c15.36-2.048 30.72-4.096 45.568-6.144l44.544-6.144c14.848-2.048 29.184-4.096 43.52-5.632 14.848-2.048 29.184-4.096 43.52-6.144" fill="#336699" p-id="9958"></path><path d="M681.984 193.024l-179.2-57.856c0-6.144 0.512-12.288 0.512-18.432s0.512-12.288 0.512-17.92c0-6.144 0.512-12.288 0.512-18.432s0.512-12.8 0.512-18.944l180.224 53.76c-0.512 7.168-0.512 13.824-1.024 20.48-0.512 6.656-0.512 12.8-0.512 19.456s-0.512 12.8-0.512 18.944c-0.512 6.144-0.512 12.288-1.024 18.944" fill="#2F4B62" p-id="9959"></path><path d="M502.272 211.456L329.216 151.04c14.848-1.536 29.696-2.56 44.032-4.096 14.336-1.536 29.184-2.56 43.52-4.096s28.672-2.56 43.008-4.096 28.672-2.56 43.008-4.096l179.2 57.856c-14.848 1.536-29.696 3.072-44.032 4.608l-44.544 4.608c-14.848 1.536-29.696 3.072-45.056 4.608-15.36 2.048-30.72 3.584-46.08 5.12" fill="#3C5F7C" p-id="9960"></path><path d="M463.36 84.992L290.304 31.232C327.168 28.16 363.52 25.6 399.872 23.04c35.84-2.56 71.168-5.12 106.496-7.68 34.816-2.56 69.12-5.12 103.424-7.68 33.792-2.56 67.072-5.12 100.352-7.68l187.392 48.64c-34.304 3.072-68.608 5.632-103.424 8.704-35.328 3.072-70.656 6.144-106.496 8.704-36.352 3.072-73.216 6.144-110.08 9.216-38.4 3.072-76.288 6.144-114.176 9.728" fill="#5B90BC" p-id="9961"></path><path d="M465.408 268.8L294.4 204.8c-2.56-1.024-5.12-2.56-6.656-4.096-2.048-2.048-3.584-4.096-4.608-7.168-1.024-3.072-1.536-6.144-2.048-10.24-0.512-4.096 0-8.704 0.512-13.824 1.024-11.264 2.048-23.04 2.56-34.304 1.024-11.264 1.536-23.04 2.048-34.304 0.512-11.264 1.536-23.04 2.048-34.304 0.512-11.776 1.536-23.04 2.048-34.816l173.056 53.76c-1.024 12.288-1.536 24.576-2.56 36.864s-1.536 24.576-2.56 36.352c-1.024 12.288-1.536 24.064-2.56 36.352s-2.048 24.064-3.072 36.352c-0.512 5.632-0.512 10.752-0.512 14.848 0.512 4.096 1.024 7.68 2.048 10.752 1.024 3.072 2.56 5.632 4.608 7.68 1.536 1.536 4.096 3.072 6.656 4.096z" fill="#30648E" p-id="9962"></path><path d="M465.408 268.8L294.4 204.8c-2.56-1.024-5.12-2.56-6.656-4.096-2.048-2.048-3.584-4.096-4.608-7.168-1.024-3.072-1.536-6.144-2.048-10.24-0.512-4.096 0-8.704 0.512-13.824 1.024-11.264 2.048-23.04 2.56-34.304 1.024-11.264 1.536-23.04 2.048-34.304 0.512-11.264 1.536-23.04 2.048-34.304 0.512-11.776 1.536-23.04 2.048-34.816l173.056 53.76c-1.024 12.288-1.536 24.576-2.56 36.864s-1.536 24.576-2.56 36.352c-1.024 12.288-1.536 24.064-2.56 36.352s-2.048 24.064-3.072 36.352c-0.512 5.632-0.512 10.752-0.512 14.848 0.512 4.096 1.024 7.68 2.048 10.752 1.024 3.072 2.56 5.632 4.608 7.68 1.536 1.536 4.096 3.072 6.656 4.096" fill="#30648E" p-id="9963"></path><path d="M903.68 95.744c-0.512 10.24-0.512 21.504-0.512 32.256 0 11.264 0 22.528-0.512 33.28s-1.536 20.992-3.072 30.208c-2.048 9.216-5.12 16.896-9.728 22.528-2.048 3.072-4.608 5.12-7.68 7.168s-6.144 3.584-9.728 5.12-7.68 2.56-11.264 3.072c-4.096 1.024-8.192 1.536-12.8 2.048-2.048 0-4.096 0.512-6.656 0.512-2.048 0-4.608 0.512-6.656 0.512s-4.608 0-6.656 0.512c-2.048 0-4.608 0-6.656 0.512-2.56 0-4.608 0-6.656 0.512-2.048 0-4.608 0-6.656 0.512-2.048 0-4.608 0.512-6.656 0.512s-4.096 0.512-6.656 0.512c-7.168 1.024-14.336 1.536-21.504 2.56s-14.336 1.536-21.504 2.56-14.336 1.536-21.504 2.56-14.336 1.536-21.504 2.56c-4.096 0.512-8.192 1.024-11.776 1.536l-12.288 1.536-12.288 1.536-12.288 1.536c-4.096 0.512-8.704 1.024-12.8 1.536s-8.704 1.024-12.8 1.536-8.704 1.024-12.8 1.536-8.704 1.024-12.8 1.536l-29.184 3.072c-9.728 1.024-19.968 2.048-29.696 3.584-9.728 1.024-19.968 2.56-29.696 3.584-10.24 1.024-19.968 2.56-30.208 3.584h-2.048c-6.656 0.512-12.288 1.024-17.408 0-4.608-1.024-8.704-2.56-11.776-5.632-3.072-3.072-5.12-7.168-6.144-12.8s-1.024-12.288-0.512-20.992c1.024-12.288 2.048-24.064 3.072-36.352 1.024-12.288 2.048-24.064 2.56-36.352 1.024-12.288 1.536-24.576 2.56-36.352 1.024-12.288 1.536-24.576 2.56-36.864 38.4-3.072 76.288-6.144 113.664-9.728 36.864-3.072 73.728-6.144 110.08-9.216 35.84-3.072 71.68-6.144 106.496-8.704 34.816-3.072 69.12-5.632 103.424-8.704 0.512 4.096 1.536 7.68 2.048 11.776 1.024 4.096 1.536 7.68 2.048 11.776 0.512 4.096 1.536 7.68 1.536 11.776 1.024 2.048 1.024 6.144 1.024 10.24z m-221.696 97.28c0.512-6.656 0.512-12.8 0.512-19.456 0-6.144 0.512-12.8 0.512-18.944 0-6.656 0.512-12.8 0.512-19.456 0.512-6.656 0.512-13.312 1.024-20.48-14.848 1.536-30.208 2.56-45.056 4.096s-29.696 2.56-45.056 4.096c-14.848 1.536-30.208 2.56-45.056 4.096-15.36 1.536-30.208 2.56-45.568 4.096 0 7.168-0.512 13.824-0.512 20.48s-0.512 13.312-0.512 19.968c0 6.656-0.512 13.312-0.512 19.968 0 6.656-0.512 13.312-0.512 19.968l46.08-4.608c14.848-1.536 30.208-3.072 45.056-4.608l44.544-4.608 44.544-4.608" fill="#336699" p-id="9964"></path><path d="M321.536 673.792l-161.792-87.552-11.264 11.264c-3.584 3.584-6.656 7.168-9.728 10.24-3.072 3.072-5.632 5.632-8.192 7.68-2.048 1.536-3.584 2.56-5.12 3.072-0.512 0-1.024 0.512-1.536 0.512l160.256 90.112c0.512 0 0.512 0 1.024-0.512 1.024-0.512 2.048-1.024 3.072-2.048 0 0 0.512 0 0.512-0.512 0.512 0 1.024-0.512 1.024-0.512h0.512c0.512-0.512 1.536-1.024 2.56-2.048 0.512-0.512 1.536-1.024 2.048-1.536l2.048-2.048 2.048-2.048h-0.512c1.024-1.024 2.048-2.048 2.56-3.584l3.584-3.584c1.024-1.024 2.56-2.048 3.584-3.584l4.096-4.096-0.512-0.512 1.024 0.512c0.512-0.512 1.536-1.536 2.048-2.56l2.048-2.048c0.512-0.512 1.024-1.536 2.048-2.048 1.024-0.512 1.536-1.536 2.56-2.048l-0.512-0.512c0 0.512 0.512 0 0.512 0z" fill="#3A5C78" p-id="9965"></path><path d="M275.968 707.072l-159.744-90.112h2.048l159.744 90.112h-1.024s-0.512 0.512-1.024 0c0.512 0 0 0 0 0" fill="#375671" p-id="9966"></path><path d="M277.504 708.096L117.76 617.984h2.048l160.256 90.112h-2.56" fill="#385975" p-id="9967"></path><path d="M280.064 708.608l-160.256-90.112h2.048l160.256 90.112H280.576c0 0.512 0 0-0.512 0" fill="#3A5C78" p-id="9968"></path><path d="M282.624 709.12l-160.256-90.112h2.048l160.256 90.112h-0.512H282.624" fill="#3C5F7C" p-id="9969"></path><path d="M321.536 674.816l-161.792-87.552c-3.072-2.048-6.144-4.608-8.704-6.656s-5.12-4.608-7.68-6.656-4.608-4.096-6.656-5.632c-2.048-1.536-4.096-3.072-5.632-4.096l161.28 86.528c2.048 1.024 3.584 2.56 6.144 4.096 2.048 1.536 4.096 3.584 6.656 5.632s5.12 4.608 7.68 6.656c3.072 3.072 5.632 5.632 8.704 7.68" fill="#2F4B62" p-id="9970"></path><path d="M200.704 615.424L43.008 529.408c12.8-1.536 25.6-3.584 37.888-5.12 12.8-1.536 25.088-3.584 37.376-5.12s25.088-3.584 37.376-5.12 24.576-3.584 36.864-5.12l163.84 82.944c-12.8 2.048-25.6 4.096-38.4 5.632-12.8 2.048-25.6 4.096-38.912 6.144-12.8 2.048-26.112 4.096-38.912 6.144-12.8 1.536-26.112 3.584-39.424 5.632" fill="#5B90BC" p-id="9971"></path><path d="M196.608 1021.952l-154.112-107.52v-94.72-95.744-96.768-97.792l158.208 86.016c-0.512 34.816-0.512 69.12-1.024 103.424-0.512 34.304-0.512 68.608-1.024 102.4s-0.512 67.584-1.024 100.864c-0.512 33.792-0.512 67.072-1.024 99.84z" fill="#30648E" p-id="9972"></path><path d="M196.608 1021.952l-154.112-107.52v-94.72-95.744-96.768-97.792l158.208 86.016c-0.512 34.816-0.512 69.12-1.024 103.424-0.512 34.304-0.512 68.608-1.024 102.4s-0.512 67.584-1.024 100.864c-0.512 33.792-0.512 67.072-1.024 99.84" fill="#30648E" p-id="9973"></path><path d="M360.448 601.088c-0.512 32.256-1.024 64.512-1.536 96.256-0.512 31.744-1.024 63.488-2.048 95.232-0.512 31.232-1.024 62.976-2.048 94.208-0.512 31.232-1.024 61.952-2.048 92.672 0 1.024 0 1.536-0.512 2.56s-0.512 1.536-1.024 2.56-0.512 1.536-1.024 2.56-0.512 1.536-1.024 2.56c-12.288 2.56-25.088 5.12-37.888 7.68s-25.6 5.12-37.888 8.192c-12.8 2.56-25.6 5.12-38.4 8.192-12.8 2.56-26.112 5.632-38.912 8.192 0.512-33.28 0.512-66.56 1.024-99.84 0.512-33.792 0.512-67.072 1.024-100.864s0.512-68.096 1.024-102.4c0.512-34.304 0.512-69.12 1.024-103.424 13.312-2.048 26.624-4.096 39.424-6.144 13.312-2.048 26.112-4.096 38.912-6.144 12.8-2.048 26.112-4.096 38.912-6.144 12.8-2.048 25.6-4.096 38.4-5.632 0.512 1.024 1.024 1.536 1.024 2.56 0.512 1.024 1.024 1.536 1.024 2.56 0.512 1.024 0.512 1.536 1.024 2.56 1.536 0.512 1.536 1.024 1.536 2.048z m-76.288 108.032c2.048-0.512 4.608-1.536 7.168-3.584s5.632-4.608 8.704-8.192c3.072-3.072 6.656-6.656 10.24-10.752s7.68-7.68 12.288-11.776c-4.096-3.072-7.68-6.144-11.264-9.216s-6.656-6.144-9.728-8.192c-3.072-2.56-5.632-4.608-8.192-5.632-2.56-1.536-4.608-2.048-6.656-1.536h-0.512-0.512-0.512-0.512c-3.072 1.024-5.632 3.072-8.704 5.12-2.56 2.56-5.632 5.632-8.192 8.704s-5.12 6.656-7.68 10.24-5.12 6.656-7.68 9.728c2.56 2.048 4.608 5.12 7.168 7.68s4.608 5.632 7.168 8.192 4.608 4.608 7.168 6.656c2.56 1.536 5.12 3.072 8.192 3.072h1.024c0-0.512 0.512-0.512 1.024-0.512-0.512 0-0.512 0 0 0" fill="#336699" p-id="9974"></path></svg>