<svg t="1750872135841" class="icon" viewBox="0 0 1024 1024" version="1.1" xmlns="http://www.w3.org/2000/svg" p-id="8495" width="200" height="200"><path d="M707.6 502.7c23.7 0 43.1 19.4 43.1 43.1 0 24.4-19.4 43.1-43.1 43.1H504.8c-23.7 0-43.1-18.7-43.1-43.1V330.1c0-23.7 19.4-43.1 43.1-43.1 23.7 0 43.1 19.4 43.1 43.1v172.6h159.7zM512 64c247.4 0 448 200.6 448 448S759.4 960 512 960 64 759.4 64 512 264.6 64 512 64z m361.7 448c0-199.9-161.8-361.7-361.7-361.7S150.3 312.1 150.3 512 312.1 873.7 512 873.7 873.7 711.9 873.7 512z" fill="#FFA915" p-id="8496"></path></svg>