<svg t="1747151552889" class="icon" viewBox="0 0 1024 1024" version="1.1" xmlns="http://www.w3.org/2000/svg" p-id="9961" width="200" height="200"><path d="M779.264555 60.420091H244.735445c-98.397031 0-178.176029 79.778998-178.176028 178.176029v534.528086c0 98.398054 79.778998 178.175005 178.176028 178.175005h534.52911c98.398054 0 178.175005-79.776951 178.175005-178.175005V238.59612c0-98.397031-79.776951-178.176029-178.175005-178.176029m-445.442119 801.791106c0-98.397031 79.778998-178.175005 178.176029-178.175006 98.398054 0 178.178075 79.777975 178.178075 178.175006H333.822436z m44.544519-400.895553c0-73.819263 59.813271-133.632533 133.63151-133.632533 73.798796 0 133.633556 59.813271 133.633556 133.632533 0 73.818239-59.83476 133.63151-133.633556 133.63151-73.819263 0.001023-133.63151-59.812247-133.63151-133.63151m489.984591 311.808562c0 49.221028-39.868009 89.088014-89.088015 89.088014 0-96.656387-51.506071-181.110871-128.435161-228.02639 50.743708-40.84629 83.889619-102.660124 83.889619-172.869163 0-122.974799-99.745748-222.719524-222.720547-222.719524-122.996289 0-222.719524 99.745748-222.719524 222.719524 0 70.209038 33.125445 132.022872 83.867106 172.869163-76.92909 46.915519-128.410602 131.370003-128.410602 228.02639-49.221028 0-89.088014-39.866986-89.088014-89.088014V238.59612c0-49.221028 39.866986-89.088014 89.088014-89.088014h534.529109c49.220005 0 89.088014 39.866986 89.088015 89.088014v534.528086z" fill="#937BB6" p-id="9962"></path></svg>