<svg t="1746122684478" class="icon" viewBox="0 0 1024 1024" version="1.1" xmlns="http://www.w3.org/2000/svg" p-id="28457" width="200" height="200"><path d="M80 536.533333c18.133333 0 32-13.866667 32-32 0-61.866667 50.133333-112 112-112 4.266667 0 11.733333 1.066667 19.2 2.133334v29.866666c0 18.133333 13.866667 32 32 32s32-13.866667 32-32V373.333333c17.066667-100.266667 103.466667-172.8 204.8-172.8S699.733333 273.066667 716.8 373.333333v51.2c0 18.133333 13.866667 32 32 32s32-13.866667 32-32V394.666667c7.466667-1.066667 14.933333-2.133333 19.2-2.133334 61.866667 0 112 50.133333 112 112 0 18.133333 13.866667 32 32 32s32-13.866667 32-32c0-97.066667-78.933333-176-176-176-8.533333 0-18.133333 1.066667-26.666667 3.2-33.066667-115.2-138.666667-195.2-261.333333-195.2S284.8 215.466667 250.666667 330.666667c-9.6-2.133333-19.2-3.2-26.666667-3.2-97.066667 0-176 78.933333-176 176 0 18.133333 13.866667 33.066667 32 33.066666zM384 632.533333c0 18.133333 13.866667 32 32 32h576c18.133333 0 32-13.866667 32-32s-13.866667-32-32-32H416c-18.133333 0-32 13.866667-32 32zM512 712.533333c-18.133333 0-32 13.866667-32 32s13.866667 32 32 32h432c18.133333 0 32-13.866667 32-32s-13.866667-32-32-32H512zM992 824.533333H608c-18.133333 0-32 13.866667-32 32s13.866667 32 32 32h384c18.133333 0 32-13.866667 32-32s-13.866667-32-32-32zM32 664.533333h288c18.133333 0 32-13.866667 32-32s-13.866667-32-32-32H32c-18.133333 0-32 13.866667-32 32 0 17.066667 13.866667 32 32 32zM80 712.533333c-18.133333 0-32 13.866667-32 32s13.866667 32 32 32H416c18.133333 0 32-13.866667 32-32s-13.866667-32-32-32H80zM512 824.533333H32c-18.133333 0-32 13.866667-32 32s13.866667 32 32 32h480c18.133333 0 32-13.866667 32-32s-13.866667-32-32-32z" fill="#7EA0BB" p-id="28458"></path></svg>