<svg t="1747376871169" class="icon" viewBox="0 0 1024 1024" version="1.1" xmlns="http://www.w3.org/2000/svg" p-id="15721" width="200" height="200"><path d="M208.979592 1024h606.040816c115.461224 0 208.979592-93.518367 208.979592-208.979592V208.979592C1024 93.518367 930.481633 0 815.020408 0H208.979592C93.518367 0 0 93.518367 0 208.979592v606.040816c0 115.461224 93.518367 208.979592 208.979592 208.979592z" fill="#1972C7" p-id="15722"></path><path d="M679.183673 250.77551c-103.862857 0-188.081633 84.218776-188.081632 188.081633s84.218776 188.081633 188.081632 188.081633 188.081633-84.218776 188.081633-188.081633-84.218776-188.081633-188.081633-188.081633z" fill="#F9C720" p-id="15723"></path><path d="M261.22449 512v2.612245c-59.559184 12.120816-104.489796 64.888163-104.489796 128C156.734694 714.710204 215.24898 773.22449 287.346939 773.22449c1.776327 0 3.448163 0 5.22449-0.10449V773.22449h344.816326c86.517551 0 156.734694-70.217143 156.734694-156.734694 0-86.517551-70.217143-156.734694-156.734694-156.734694-9.508571 0-18.912653 0.835918-28.003265 2.507755C587.964082 388.388571 519.732245 334.367347 438.857143 334.367347c-98.115918 0-177.632653 79.516735-177.632653 177.632653z" fill="#F3F6F4" p-id="15724"></path></svg>