<svg t="1746122585902" class="icon" viewBox="0 0 1260 1024" version="1.1" xmlns="http://www.w3.org/2000/svg" p-id="23846" width="200" height="200"><path d="M1024 512H118.153846v-78.769231h866.461539s5.435077-0.393846 19.692307-0.393846a176.836923 176.836923 0 1 0-176.718769-176.836923c0 14.178462-0.512 19.692308-0.512 19.692308a39.384615 39.384615 0 0 1-78.769231 0 40.290462 40.290462 0 0 1 1.339077-6.695385A96.925538 96.925538 0 0 1 748.307692 256a256 256 0 0 1 512 0c0 241.033846-236.307692 256-236.307692 256z m-78.769231 295.384615a215.512615 215.512615 0 0 1-427.716923 38.596923A37.533538 37.533538 0 0 1 512 827.076923a39.384615 39.384615 0 0 1 78.769231 0h1.969231a137.531077 137.531077 0 0 0 273.723076-19.692308 134.104615 134.104615 0 0 0-118.153846-137.846153H0v-78.769231h748.307692s196.923077 14.178462 196.923077 216.615384z" fill="#6EA3E5" p-id="23847"></path></svg>