<svg t="1750870918037" class="icon" viewBox="0 0 1024 1024" version="1.1" xmlns="http://www.w3.org/2000/svg" p-id="5808" width="200" height="200"><path d="M975.189333 943.445333H47.786667c-26.624 0-47.786667-21.504-47.786667-47.786666V128c0-26.624 21.504-47.786667 47.786667-47.786667 26.624 0 47.786667 21.504 47.786666 47.786667v719.189333h879.274667c26.624 0 47.786667 21.504 47.786667 47.786667 0.341333 26.965333-21.162667 48.469333-47.445334 48.469333m-111.957333-144.042666h-95.914667c-26.624 0-47.786667-21.504-47.786666-47.786667v-335.530667c0-26.624 21.504-47.786667 47.786666-47.786666h95.914667c26.624 0 47.786667 21.504 47.786667 47.786666v335.530667c0 26.282667-21.504 47.786667-47.786667 47.786667m-271.701333 0h-95.914667c-26.624 0-47.786667-21.504-47.786667-47.786667V223.914667c0-26.624 21.504-47.786667 47.786667-47.786667h95.914667c26.624 0 47.786667 21.504 47.786666 47.786667v527.36c0 26.624-21.504 48.128-47.786666 48.128m-271.701334 0H223.914667c-26.624 0-47.786667-21.504-47.786667-47.786667v-95.914667c0-26.624 21.504-47.786667 47.786667-47.786666h95.914666c26.624 0 47.786667 21.504 47.786667 47.786666v95.914667c0 26.282667-21.504 47.786667-47.786667 47.786667" p-id="5809" fill="#ffffff"></path></svg>