<svg t="1747584066910" class="icon" viewBox="0 0 1156 1024" version="1.1" xmlns="http://www.w3.org/2000/svg" p-id="14124" width="200" height="200"><path d="M693.677419 924.903226h138.735484c25.566968 0 46.245161 20.678194 46.245162 46.245161 0 25.566968-20.678194 46.245161-46.245162 46.245161H323.716129c-25.566968 0-46.245161-20.678194-46.245161-46.245161 0-25.566968 20.678194-46.245161 46.245161-46.245161h115.612903v-115.612903H92.490323A92.589419 92.589419 0 0 1 0 716.8V92.490323C0 41.488516 41.488516 0 92.490323 0h971.148387C1114.640516 0 1156.129032 41.488516 1156.129032 92.490323v624.309677c0 51.001806-41.488516 92.490323-92.490322 92.490323H693.677419V924.903226z m-46.245161 0v-115.612903h-161.858064V924.903226h161.858064zM92.490323 92.490323v624.309677h971.148387V92.490323H92.490323z" fill="#fff" p-id="14125"></path><path d="M340.034065 480.520258l163.443612-163.443613a46.311226 46.311226 0 0 1 65.469936 65.469936l-163.443613 163.278451a46.311226 46.311226 0 0 1-65.469935 0 46.146065 46.146065 0 0 1 0-65.304774z m277.470967-51.860645l65.469936-65.502968a46.311226 46.311226 0 0 1 65.469935 65.469936l-65.469935 65.469935a46.311226 46.311226 0 0 1-65.469936-65.469935z" fill="#fff" p-id="14126"></path></svg>