<svg t="1747583894126" class="icon" viewBox="0 0 1306 1024" version="1.1" xmlns="http://www.w3.org/2000/svg" p-id="8395" width="250" height="250"><path d="M489.126858 0.011484v955.349261l213.143689 68.639255V222.750608c0-37.565105 16.536812-62.677837 43.240702-53.939867 34.625227 9.840424 41.362447 44.302325 41.362447 81.950369v319.922244c132.90825 64.964408 237.479344-0.127599 237.479345-171.658748 0-176.231891-61.289561-254.506136-241.60334-317.224804-71.170817-24.371382-202.976612-64.556092-293.501624-81.79087z m253.486621 884.260107l342.785409-123.84873c38.917653-14.046083 44.955631-34.012752 13.39788-44.547315-31.889507-10.452899-89.136736-7.553853-128.335106 6.696388l-228.951913 81.62882V674.354877l13.066124-4.613975s65.372724-22.865716 158.592624-33.481941c92.321604-9.799593 206.079817 1.592434 295.992354 35.972671 100.610426 32.70614 111.104156 80.153777 85.788542 112.819085s-88.320104 56.389765-88.320103 56.389764L741.468918 1010.607224v-125.068576zM98.403833 871.329239c-103.427809-29.684599-120.536264-90.810833-73.624542-126.375188 43.608187-31.848676 117.555555-57.206397 117.555554-57.206398l305.754943-109.593385v125.92604L228.943848 784.234084c-38.381737 14.74022-44.914799 34.421069-13.025292 44.955631 31.889507 10.616225 89.136736 8.166327 127.559306-6.533062l105.510222-38.422569v112.900748c-6.573893 1.592434-13.923588 2.409066-21.273282 3.955565-105.510222 18.011855-217.512675 10.664713-328.657662-26.083759z" fill="#fff" p-id="8396"></path></svg>