<svg t="1747583947864" class="icon" viewBox="0 0 1024 1024" version="1.1" xmlns="http://www.w3.org/2000/svg" p-id="10227" width="200" height="200"><path d="M175.008211 897.407439A509.759681 509.759681 0 0 0 512 1023.99936c129.119919 0 247.007846-47.74397 337.151789-126.591921C929.247739 815.83949 664.991904 525.823671 512 410.271744 359.168096 525.823671 94.752261 815.80749 175.008211 897.407439z m476.159702-614.655616c106.655933 126.335921 319.3278 440.031725 259.231838 550.911656a509.439682 509.439682 0 0 0 113.567929-321.503799c0-142.495911-58.239964-271.45583-152.319905-364.191772 0 0-1.151999-0.927999-3.487998-1.791999a35.487978 35.487978 0 0 0-11.999992-1.919999c-25.247984 0-84.703947 18.527988-205.023872 138.495913zM155.904223 146.175909c-2.431998 0.863999-3.487998 1.759999-3.679998 1.791999A510.175681 510.175681 0 0 0 0.00032 512.15968c0 121.759924 42.591973 233.503854 113.535929 321.407799C53.760286 722.431548 266.240154 408.991744 372.960087 282.751823c-120.319925-120.031925-179.871888-138.463913-205.055872-138.463913a31.26398 31.26398 0 0 0-11.999992 1.951999v-0.096zM512 151.519905s-125.663921-73.503954-223.77586-77.023952c-38.527976-1.407999-62.047961 12.575992-64.89596 14.463991 91.519943-61.407962 188.799882-88.959944 287.99982-88.959944H512c99.583938 0 196.479877 27.551983 288.67182 88.959944-2.911998-1.951999-26.239984-15.87199-64.86396-14.463991-98.143939 3.487998-223.83986 76.767952-223.83986 76.767952v0.256z" fill="#fff" p-id="10228"></path></svg>