<svg t="1747387272143" class="icon" viewBox="0 0 1024 1024" version="1.1" xmlns="http://www.w3.org/2000/svg" p-id="15385" width="200" height="200"><path d="M244 332a180 180 0 0 0 0 360c107.6 0 165.424-78.56 230.104-180C409.424 410.56 351.6 332 244 332z m0 424a244.012 244.012 0 0 1-244-244 244 244 0 0 1 244-244c133.536 0 208.344 93.08 268 184.492C571.656 361.08 646.464 268 780 268a244.004 244.004 0 0 1 93.376 469.428A244.04 244.04 0 0 1 780 756c-133.536 0-208.344-93.08-268-184.492C452.344 662.92 377.536 756 244 756z m536-64a180.052 180.052 0 0 0 68.884-13.7 180.12 180.12 0 0 0 58.396-39.02 180.12 180.12 0 0 0 39.02-58.396 180.052 180.052 0 0 0 0-137.768A180.048 180.048 0 0 0 780 332c-107.6 0-165.424 78.56-230.104 180 64.68 101.44 122.504 180 230.104 180z" fill="#5CDBD3" p-id="15386"></path><path d="M96 860m-56 0a56 56 0 1 0 112 0 56 56 0 1 0-112 0Z" fill="#87E8DE" p-id="15387"></path><path d="M304 860m-56 0a56 56 0 1 0 112 0 56 56 0 1 0-112 0Z" fill="#87E8DE" p-id="15388"></path><path d="M928 860m-56 0a56 56 0 1 0 112 0 56 56 0 1 0-112 0Z" fill="#87E8DE" p-id="15389"></path><path d="M720 860m-56 0a56 56 0 1 0 112 0 56 56 0 1 0-112 0Z" fill="#87E8DE" p-id="15390"></path><path d="M512 860m-56 0a56 56 0 1 0 112 0 56 56 0 1 0-112 0Z" fill="#87E8DE" p-id="15391"></path><path d="M96 164m-56 0a56 56 0 1 0 112 0 56 56 0 1 0-112 0Z" fill="#87E8DE" p-id="15392"></path><path d="M304 164m-56 0a56 56 0 1 0 112 0 56 56 0 1 0-112 0Z" fill="#87E8DE" p-id="15393"></path><path d="M928 164m-56 0a56 56 0 1 0 112 0 56 56 0 1 0-112 0Z" fill="#87E8DE" p-id="15394"></path><path d="M720 164m-56 0a56 56 0 1 0 112 0 56 56 0 1 0-112 0Z" fill="#87E8DE" p-id="15395"></path><path d="M512 164m-56 0a56 56 0 1 0 112 0 56 56 0 1 0-112 0Z" fill="#87E8DE" p-id="15396"></path></svg>