<svg t="1747147647067" class="icon" viewBox="0 0 1024 1024" version="1.1" xmlns="http://www.w3.org/2000/svg" p-id="7134" width="200" height="200"><path d="M894.6 338.3c-41.1-44.3-95.9-68.7-154.5-68.9h-0.5c-8.9 0-17.7 0.6-26.4 1.7-13.5-51.8-41.8-98.9-81.9-135.4-50.5-45.9-115.9-71.2-184-71.2-73.5 0-142.5 28.8-194.5 81.2-51.8 52.3-80.4 121.8-80.4 195.7 0 16.3 3.3 33.3 7.5 49.2-29.4 8.3-54.7 24.3-74.5 47.2-26 30.2-40.3 70.8-40.4 114.4-0.3 98.2 83.3 178.4 186.3 178.6 2.2 0 4.7 0.1 7.4 0.3 3.4 0.2 7.1 0.4 11.2 0.4 4.2 0 8-0.2 11.7-0.7h457.8c58.5 0 113.4-24.2 154.5-68.2 40.5-43.3 62.9-100.8 63.1-161.9 0.2-61.1-22-118.8-62.4-162.4zM739.4 658.8H275.9l-3 0.5c-0.4 0.1-1.2 0.2-3 0.2-2 0-4.6-0.1-7.2-0.3-3.3-0.2-7.1-0.4-11.2-0.4-63.3-0.2-114.6-47.9-114.5-106.5 0.1-43.5 23.8-94.8 90.1-96.3l47.8-1.1-14.2-45.6c-0.9-2.9-1.9-6-2.9-9.2-6-18.8-13.5-42.2-13.5-58.7 0-113 91-204.9 202.9-204.9 103.5 0 190.2 78.2 201.6 181.9l4.9 44.6 42.5-14.4c14-4.8 28.6-7.2 43.4-7.2h0.4c80.3 0.2 145.4 71.6 145.2 159-0.4 87.4-65.7 158.4-145.8 158.4zM629.7 804.6l-76.4 90.2c-7.1 8.4-17.3 12.7-27.5 12.7-8.2 0-16.5-2.8-23.2-8.5-15.2-12.8-17.1-35.6-4.2-50.7l76.4-90.2c12.8-15.2 35.6-17.1 50.7-4.2 15.2 12.8 17.1 35.5 4.2 50.7z m-201.4 49L352 943.9c-7.1 8.4-17.3 12.7-27.5 12.7-8.2 0-16.5-2.8-23.2-8.5-15.2-12.8-17.1-35.6-4.2-50.7l76.4-90.2c12.8-15.2 35.6-17.1 50.7-4.2 15.1 12.7 17 35.4 4.1 50.6z" fill="#4285F7" p-id="7135"></path></svg>