<svg t="1746121868463" class="icon" viewBox="0 0 1335 1024" version="1.1" xmlns="http://www.w3.org/2000/svg" p-id="21836" width="200" height="200"><path d="M708.474435 200.882087v18.120348c-26.312348 0-52.98087 8.370087-75.865044 22.528a273.808696 273.808696 0 0 1 178.532174 191.042782c67.005217 0.712348 132.85287 26.490435 184.008348 68.34087h111.749565c67.673043 0 122.657391-55.741217 122.657392-124.215652V343.262609c0-63.888696-67.673043-124.215652-139.219479-124.215652v-18.120348h-59.970782c0-73.060174-58.768696-132.674783-130.938435-132.674783-72.169739 0-130.938435 59.614609-130.938435 132.674783h-60.015304z m-1.958957-50.176C728.598261 64.022261 806.64487 0 899.428174 0c92.872348 0 170.874435 64.022261 192.957217 150.706087 104.759652 1.068522 205.512348 86.817391 205.512348 192.512v33.480348c0 106.317913-85.481739 192.512-190.998261 192.512h-51.021913c23.373913 37.220174 37.13113 79.872 37.131131 125.239652v45.545739a261.87687 261.87687 0 0 1-261.87687 261.832348H261.87687A261.832348 261.832348 0 0 1 0 740.040348v-45.590261C0 550.733913 138.284522 434.086957 281.86713 432.573217a273.363478 273.363478 0 0 1 263.257044-204.889043c39.17913-46.302609 99.59513-76.354783 161.391304-77.022609z m-126.753391 147.990261c-0.26713 0.445217-0.445217 0.979478-0.712348 1.469217l-5.12-2.359652a205.111652 205.111652 0 0 0-232.403478 203.108174H284.627478c-113.174261 0-216.286609 92.249043-216.286608 193.536v45.545739a193.758609 193.758609 0 0 0 193.580521 193.536h569.254957a193.714087 193.714087 0 0 0 193.491478-193.536v-45.545739c0-101.286957-103.067826-193.536-216.286609-193.536h-56.987826a205.156174 205.156174 0 0 0-171.586782-202.217739z" fill="#29538E" p-id="21837"></path></svg>