<svg t="1746976323694" class="icon" viewBox="0 0 1024 1024" version="1.1" xmlns="http://www.w3.org/2000/svg" p-id="5206" width="200" height="200"><path d="M312.436364 257.210182L243.898182 188.741818l-53.690182 53.922909 68.165818 68.491637 54.062546-53.946182zM207.36 473.739636H93.090909v76.520728h114.269091v-76.520728zM550.074182 93.090909h-76.148364v112.872727h76.148364V93.090909z m283.717818 149.573818L780.101818 188.741818l-68.189091 68.468364 53.713455 53.946182 68.189091-68.491637z m-122.228364 524.101818l68.165819 68.887273 53.690181-53.946182-68.561454-68.468363-53.294546 53.527272z m105.099637-293.003636v76.497455H930.909091v-76.520728h-114.269091zM512 282.437818c-126.045091 0-228.491636 102.912-228.491636 229.538909s102.446545 229.538909 228.491636 229.538909c126.045091 0 228.491636-102.912 228.491636-229.538909S638.045091 282.461091 512 282.461091zM473.925818 930.909091h76.148364v-112.872727h-76.148364V930.909091zM190.208 781.335273l53.690182 53.922909 68.189091-68.840727-53.713455-53.946182-68.189091 68.864z" fill="#FFC538" p-id="5207"></path></svg>